<svg xmlns="http://www.w3.org/2000/svg">

  <!-- EMAIL -->
    <symbol id="envelope" viewBox="0 0 24 24" stroke-width="1.5" stroke="currentColor">
        <path stroke-linecap="round" stroke-linejoin="round" d="M21.75 6.75v10.5a2.25 2.25 0 0 1-2.25 2.25h-15a2.25 2.25 0 0 1-2.25-2.25V6.75m19.5 0A2.25 2.25 0 0 0 19.5 4.5h-15a2.25 2.25 0 0 0-2.25 2.25m19.5 0v.243a2.25 2.25 0 0 1-1.07 1.916l-7.5 4.615a2.25 2.25 0 0 1-2.36 0L3.32 8.91a2.25 2.25 0 0 1-1.07-1.916V6.75" />
    </symbol>

    <!-- Lock -->
    <symbol id="lock" viewBox="0 0 24 24" stroke-width="1.5" stroke="currentColor">
        <path stroke-linecap="round" stroke-linejoin="round" d="M16.5 10.5V6.75a4.5 4.5 0 1 0-9 0v3.75m-.75 11.25h10.5a2.25 2.25 0 0 0 2.25-2.25v-6.75a2.25 2.25 0 0 0-2.25-2.25H6.75a2.25 2.25 0 0 0-2.25 2.25v6.75a2.25 2.25 0 0 0 2.25 2.25Z" />
    </symbol>
    
    <!-- Eye open -->
    <symbol id="eye-open" viewBox="0 0 24 24" stroke-width="1.5" stroke="currentColor">
        <path stroke-linecap="round" stroke-linejoin="round" d="M2.036 12.322a1.012 1.012 0 0 1 0-.639C3.423 7.51 7.36 4.5 12 4.5c4.638 0 8.573 3.007 9.963 7.178.07.207.07.431 0 .639C20.577 16.49 16.64 19.5 12 19.5c-4.638 0-8.573-3.007-9.963-7.178Z" />
        <path stroke-linecap="round" stroke-linejoin="round" d="M15 12a3 3 0 1 1-6 0 3 3 0 0 1 6 0Z" />
    </symbol>

    <!-- Eye closed -->
    <symbol id="eye-closed" viewBox="0 0 24 24" stroke-width="1.5" stroke="currentColor">
        <path stroke-linecap="round" stroke-linejoin="round" d="M3.98 8.223A10.477 10.477 0 0 0 1.934 12C3.226 16.338 7.244 19.5 12 19.5c.993 0 1.953-.138 2.863-.395M6.228 6.228A10.451 10.451 0 0 1 12 4.5c4.756 0 8.773 3.162 10.065 7.498a10.522 10.522 0 0 1-4.293 5.774M6.228 6.228 3 3m3.228 3.228 3.65 3.65m7.894 7.894L21 21m-3.228-3.228-3.65-3.65m0 0a3 3 0 1 0-4.243-4.243m4.242 4.242L9.88 9.88" />
    </symbol>

    <!-- User -->
    <symbol id="user" viewBox="0 0 24 24" stroke-width="1.5" stroke="currentColor">
        <path stroke-linecap="round" stroke-linejoin="round" d="M15.75 6a3.75 3.75 0 1 1-7.5 0 3.75 3.75 0 0 1 7.5 0ZM4.501 20.118a7.5 7.5 0 0 1 14.998 0A17.933 17.933 0 0 1 12 21.75c-2.676 0-5.216-.584-7.499-1.632Z" />
    </symbol>

    <!-- Home -->
    <symbol id="home" viewBox="0 0 24 24" stroke-width="1.5" stroke="currentColor">
        <path stroke-linecap="round" stroke-linejoin="round" d="m2.25 12 8.954-8.955c.44-.439 1.152-.439 1.591 0L21.75 12M4.5 9.75v10.125c0 .621.504 1.125 1.125 1.125H9.75v-4.875c0-.621.504-1.125 1.125-1.125h2.25c.621 0 1.125.504 1.125 1.125V21h4.125c.621 0 1.125-.504 1.125-1.125V9.75M8.25 21h8.25" />
    </symbol>

    <!-- Right-arrow -->
    <symbol id="right-arrow" viewBox="0 0 24 24" stroke-width="1.5" stroke="currentColor">
        <path stroke-linecap="round" stroke-linejoin="round" d="M13.5 4.5 21 12m0 0-7.5 7.5M21 12H3" />
    </symbol>

    <!-- Left arrow -->
    <symbol id="left-arrow" viewBox="0 0 24 24" stroke-width="1.5" stroke="currentColor">
        <path stroke-linecap="round" stroke-linejoin="round" d="M10.5 19.5 3 12m0 0 7.5-7.5M3 12h18" />
    </symbol>

    <!-- Camera -->
    <symbol id="camera" viewBox="0 0 24 24" stroke-width="1.5" stroke="currentColor">
        <path stroke-linecap="round" stroke-linejoin="round" d="M6.827 6.175A2.31 2.31 0 0 1 5.186 7.23c-.38.054-.757.112-1.134.175C2.999 7.58 2.25 8.507 2.25 9.574V18a2.25 2.25 0 0 0 2.25 2.25h15A2.25 2.25 0 0 0 21.75 18V9.574c0-1.067-.75-1.994-1.802-2.169a47.865 47.865 0 0 0-1.134-.175 2.31 2.31 0 0 1-1.64-1.055l-.822-1.316a2.192 2.192 0 0 0-1.736-1.039 48.774 48.774 0 0 0-5.232 0 2.192 2.192 0 0 0-1.736 1.039l-.821 1.316Z" />
        <path stroke-linecap="round" stroke-linejoin="round" d="M16.5 12.75a4.5 4.5 0 1 1-9 0 4.5 4.5 0 0 1 9 0ZM18.75 10.5h.008v.008h-.008V10.5Z" />
    </symbol>

    <!-- Wallet -->
    <symbol id="wallet" viewBox="0 0 24 24" stroke-width="1.5" stroke="currentColor">
        <path stroke-linecap="round" stroke-linejoin="round" d="M21 12a2.25 2.25 0 0 0-2.25-2.25H15a3 3 0 1 1-6 0H5.25A2.25 2.25 0 0 0 3 12m18 0v6a2.25 2.25 0 0 1-2.25 2.25H5.25A2.25 2.25 0 0 1 3 18v-6m18 0V9M3 12V9m18 0a2.25 2.25 0 0 0-2.25-2.25H5.25A2.25 2.25 0 0 0 3 9m18 0V6a2.25 2.25 0 0 0-2.25-2.25H5.25A2.25 2.25 0 0 0 3 6v3" />
    </symbol>

    <!-- Notes -->
    <symbol id="notes" viewBox="0 0 24 24" stroke-width="1.5" stroke="currentColor">
        <path stroke-linecap="round" stroke-linejoin="round" d="M2.25 18.75a60.07 60.07 0 0 1 15.797 2.101c.727.198 1.453-.342 1.453-1.096V18.75M3.75 4.5v.75A.75.75 0 0 1 3 6h-.75m0 0v-.375c0-.621.504-1.125 1.125-1.125H20.25M2.25 6v9m18-10.5v.75c0 .414.336.75.75.75h.75m-1.5-1.5h.375c.621 0 1.125.504 1.125 1.125v9.75c0 .621-.504 1.125-1.125 1.125h-.375m1.5-1.5H21a.75.75 0 0 0-.75.75v.75m0 0H3.75m0 0h-.375a1.125 1.125 0 0 1-1.125-1.125V15m1.5 1.5v-.75A.75.75 0 0 0 3 15h-.75M15 10.5a3 3 0 1 1-6 0 3 3 0 0 1 6 0Zm3 0h.008v.008H18V10.5Zm-12 0h.008v.008H6V10.5Z" />
    </symbol>

    <!-- Plus circle -->
    <symbol id="plus-circle" viewBox="0 0 24 24" stroke-width="1.5" stroke="currentColor">
        <path stroke-linecap="round" stroke-linejoin="round" d="M12 9v6m3-3H9m12 0a9 9 0 1 1-18 0 9 9 0 0 1 18 0Z" />
    </symbol>

    <!-- Plus -->
    <symbol id="plus" viewBox="0 0 24 24" stroke-width="1.5" stroke="currentColor">
        <path stroke-linecap="round" stroke-linejoin="round" d="M12 4.5v15m7.5-7.5h-15" />
    </symbol>

    <!-- Minus -->
    <symbol id="minus" viewBox="0 0 24 24" stroke-width="1.5" stroke="currentColor">
        <path stroke-linecap="round" stroke-linejoin="round" d="M5 12h14" />
    </symbol>

    <!-- minus circle -->
    <symbol id="minus-circle" viewBox="0 0 24 24" stroke-width="1.5" stroke="currentColor">
        <path stroke-linecap="round" stroke-linejoin="round" d="M15 12H9m12 0a9 9 0 1 1-18 0 9 9 0 0 1 18 0Z" />
    </symbol>

    <!-- Dollar sign -->
    <symbol id="dollar-sign" viewBox="0 0 640 640" stroke-width="1.5" stroke="currentColor" fill="currentColor">
        <path d="M296 88C296 74.7 306.7 64 320 64C333.3 64 344 74.7 344 88L344 128L400 128C417.7 128 432 142.3 432 160C432 177.7 417.7 192 400 192L285.1 192C260.2 192 240 212.2 240 237.1C240 259.6 256.5 278.6 278.7 281.8L370.3 294.9C424.1 302.6 464 348.6 464 402.9C464 463.2 415.1 512 354.9 512L344 512L344 552C344 565.3 333.3 576 320 576C306.7 576 296 565.3 296 552L296 512L224 512C206.3 512 192 497.7 192 480C192 462.3 206.3 448 224 448L354.9 448C379.8 448 400 427.8 400 402.9C400 380.4 383.5 361.4 361.3 358.2L269.7 345.1C215.9 337.5 176 291.4 176 237.1C176 176.9 224.9 128 285.1 128L296 128L296 88z"/>
    </symbol>

    <!-- Office-building -->
    <symbol id="office-building" viewBox="0 0 24 24" stroke-width="1.5" stroke="currentColor">
      <path stroke-linecap="round" stroke-linejoin="round" d="M2.25 21h19.5m-18-18v18m10.5-18v18m6-13.5V21M6.75 6.75h.75m-.75 3h.75m-.75 3h.75m3-6h.75m-.75 3h.75m-.75 3h.75M6.75 21v-3.375c0-.621.504-1.125 1.125-1.125h2.25c.621 0 1.125.504 1.125 1.125V21M3 3h12m-.75 4.5H21m-3.75 3.75h.008v.008h-.008v-.008Zm0 3h.008v.008h-.008v-.008Zm0 3h.008v.008h-.008v-.008Z" />
    </symbol>

    <!-- Bullseye -->
    <symbol id="bullseye" viewBox="0 0 640 640" stroke-width="1.5" stroke="currentColor" fill="currentColor">
        <path d="M512 320C512 214 426 128 320 128C214 128 128 214 128 320C128 426 214 512 320 512C426 512 512 426 512 320zM64 320C64 178.6 178.6 64 320 64C461.4 64 576 178.6 576 320C576 461.4 461.4 576 320 576C178.6 576 64 461.4 64 320zM320 400C364.2 400 400 364.2 400 320C400 275.8 364.2 240 320 240C275.8 240 240 275.8 240 320C240 364.2 275.8 400 320 400zM320 176C399.5 176 464 240.5 464 320C464 399.5 399.5 464 320 464C240.5 464 176 399.5 176 320C176 240.5 240.5 176 320 176zM288 320C288 302.3 302.3 288 320 288C337.7 288 352 302.3 352 320C352 337.7 337.7 352 320 352C302.3 352 288 337.7 288 320z"/>
    </symbol>

    <!-- Target -->
    <symbol id="target" viewBox="0 0 640 640" stroke-width="1.5" stroke="currentColor" fill="currentColor">
        <path d="M320 48C337.7 48 352 62.3 352 80L352 98.3C450.1 112.3 527.7 189.9 541.7 288L560 288C577.7 288 592 302.3 592 320C592 337.7 577.7 352 560 352L541.7 352C527.7 450.1 450.1 527.7 352 541.7L352 560C352 577.7 337.7 592 320 592C302.3 592 288 577.7 288 560L288 541.7C189.9 527.7 112.3 450.1 98.3 352L80 352C62.3 352 48 337.7 48 320C48 302.3 62.3 288 80 288L98.3 288C112.3 189.9 189.9 112.3 288 98.3L288 80C288 62.3 302.3 48 320 48zM163.2 352C175.9 414.7 225.3 464.1 288 476.8L288 464C288 446.3 302.3 432 320 432C337.7 432 352 446.3 352 464L352 476.8C414.7 464.1 464.1 414.7 476.8 352L464 352C446.3 352 432 337.7 432 320C432 302.3 446.3 288 464 288L476.8 288C464.1 225.3 414.7 175.9 352 163.2L352 176C352 193.7 337.7 208 320 208C302.3 208 288 193.7 288 176L288 163.2C225.3 175.9 175.9 225.3 163.2 288L176 288C193.7 288 208 302.3 208 320C208 337.7 193.7 352 176 352L163.2 352zM320 272C346.5 272 368 293.5 368 320C368 346.5 346.5 368 320 368C293.5 368 272 346.5 272 320C272 293.5 293.5 272 320 272z"/>
    </symbol>

    <!-- Crosshair -->
    <symbol id="crosshair" viewBox="0 0 640 640" stroke-width="1.5" stroke="currentColor" fill="currentColor">
        <path d="M320 48C337.7 48 352 62.3 352 80L352 98.3C450.1 112.3 527.7 189.9 541.7 288L560 288C577.7 288 592 302.3 592 320C592 337.7 577.7 352 560 352L541.7 352C527.7 450.1 450.1 527.7 352 541.7L352 560C352 577.7 337.7 592 320 592C302.3 592 288 577.7 288 560L288 541.7C189.9 527.7 112.3 450.1 98.3 352L80 352C62.3 352 48 337.7 48 320C48 302.3 62.3 288 80 288L98.3 288C112.3 189.9 189.9 112.3 288 98.3L288 80C288 62.3 302.3 48 320 48zM163.2 352C175.9 414.7 225.3 464.1 288 476.8L288 464C288 446.3 302.3 432 320 432C337.7 432 352 446.3 352 464L352 476.8C414.7 464.1 464.1 414.7 476.8 352L464 352C446.3 352 432 337.7 432 320C432 302.3 446.3 288 464 288L476.8 288C464.1 225.3 414.7 175.9 352 163.2L352 176C352 193.7 337.7 208 320 208C302.3 208 288 193.7 288 176L288 163.2C225.3 175.9 175.9 225.3 163.2 288L176 288C193.7 288 208 302.3 208 320C208 337.7 193.7 352 176 352L163.2 352zM320 272C346.5 272 368 293.5 368 320C368 346.5 346.5 368 320 368C293.5 368 272 346.5 272 320C272 293.5 293.5 272 320 272z"/>
    </symbol>

    <!-- Calendar -->
    <symbol id="calendar" viewBox="0 0 640 640" stroke-width="1.5" stroke="currentColor" fill="currentColor">
        <path d="M216 64C229.3 64 240 74.7 240 88L240 128L400 128L400 88C400 74.7 410.7 64 424 64C437.3 64 448 74.7 448 88L448 128L480 128C515.3 128 544 156.7 544 192L544 480C544 515.3 515.3 544 480 544L160 544C124.7 544 96 515.3 96 480L96 192C96 156.7 124.7 128 160 128L192 128L192 88C192 74.7 202.7 64 216 64zM216 176L160 176C151.2 176 144 183.2 144 192L144 240L496 240L496 192C496 183.2 488.8 176 480 176L216 176zM144 288L144 480C144 488.8 151.2 496 160 496L480 496C488.8 496 496 488.8 496 480L496 288L144 288z"/>
    </symbol>

    <!-- Forward -->
    <symbol id="forward" viewBox="0 0 24 24" stroke-width="1.5" stroke="currentColor" fill="currentColor">
        <path stroke-linecap="round" stroke-linejoin="round" d="M3 8.689c0-.864.933-1.406 1.683-.977l7.108 4.061a1.125 1.125 0 0 1 0 1.954l-7.108 4.061A1.125 1.125 0 0 1 3 16.811V8.69ZM12.75 8.689c0-.864.933-1.406 1.683-.977l7.108 4.061a1.125 1.125 0 0 1 0 1.954l-7.108 4.061a1.125 1.125 0 0 1-1.683-.977V8.69Z" />
    </symbol>

    <!-- Bell -->
    <symbol id="bell" viewBox="0 0 640 640" stroke-width="1.5" stroke="currentColor" fill="currentColor">
        <path d="M320 64C306.7 64 296 74.7 296 88L296 97.7C214.6 109.3 152 179.4 152 264L152 278.5C152 316.2 142 353.2 123 385.8L101.1 423.2C97.8 429 96 435.5 96 442.2C96 463.1 112.9 480 133.8 480L506.2 480C527.1 480 544 463.1 544 442.2C544 435.5 542.2 428.9 538.9 423.2L517 385.7C498 353.1 488 316.1 488 278.4L488 263.9C488 179.3 425.4 109.2 344 97.6L344 87.9C344 74.6 333.3 63.9 320 63.9zM488.4 432L151.5 432L164.4 409.9C187.7 370 200 324.6 200 278.5L200 264C200 197.7 253.7 144 320 144C386.3 144 440 197.7 440 264L440 278.5C440 324.7 452.3 370 475.5 409.9L488.4 432zM252.1 528C262 556 288.7 576 320 576C351.3 576 378 556 387.9 528L252.1 528z"/>
    </symbol>

    <!-- Stock Down -->
    <symbol id="stock-down" viewBox="0 0 640 640" stroke-width="1.5" stroke="currentColor" fill="currentColor">
        <path d="M416 416C398.3 416 384 430.3 384 448C384 465.7 398.3 480 416 480L576 480C593.7 480 608 465.7 608 448L608 288C608 270.3 593.7 256 576 256C558.3 256 544 270.3 544 288L544 370.7L374.6 201.3C362.1 188.8 341.8 188.8 329.3 201.3L224 306.7L86.6 169.4C74.1 156.9 53.8 156.9 41.3 169.4C28.8 181.9 28.8 202.2 41.3 214.7L201.3 374.7C213.8 387.2 234.1 387.2 246.6 374.7L352 269.3L498.7 416L416 416z"/>
    </symbol>

    <!-- Stock Up -->
    <symbol id="stock-up" viewBox="0 0 640 640" stroke-width="1.5" stroke="currentColor" fill="currentColor">
        <path d="M416 224C398.3 224 384 209.7 384 192C384 174.3 398.3 160 416 160L576 160C593.7 160 608 174.3 608 192L608 352C608 369.7 593.7 384 576 384C558.3 384 544 369.7 544 352L544 269.3L374.6 438.7C362.1 451.2 341.8 451.2 329.3 438.7L224 333.3L86.6 470.6C74.1 483.1 53.8 483.1 41.3 470.6C28.8 458.1 28.8 437.8 41.3 425.3L201.3 265.3C213.8 252.8 234.1 252.8 246.6 265.3L352 370.7L498.7 224L416 224z"/>
    </symbol>

    <!-- Tags -->
    <symbol id="tags" viewBox="0 0 640 640" stroke-width="1.5" stroke="currentColor" fill="currentColor">
        <path d="M433.2 103.1L581.4 253.4C609.1 281.5 609.1 326.5 581.4 354.6L425 512.9C415.7 522.3 400.5 522.4 391.1 513.1C381.7 503.8 381.6 488.6 390.9 479.2L547.3 320.8C556.5 311.5 556.5 296.4 547.3 287.1L399 136.9C389.7 127.5 389.8 112.3 399.2 103C408.6 93.7 423.8 93.8 433.1 103.2zM64.1 293.5L64.1 160C64.1 124.7 92.8 96 128.1 96L261.6 96C278.6 96 294.9 102.7 306.9 114.7L450.9 258.7C475.9 283.7 475.9 324.2 450.9 349.2L317.4 482.7C292.4 507.7 251.9 507.7 226.9 482.7L82.9 338.7C70.9 326.7 64.2 310.4 64.2 293.4zM208.1 208C208.1 190.3 193.8 176 176.1 176C158.4 176 144.1 190.3 144.1 208C144.1 225.7 158.4 240 176.1 240C193.8 240 208.1 225.7 208.1 208z"/>
    </symbol>

    <!-- bar-graph -->
    <symbol id="bar-graph" viewBox="0 0 640 640" stroke-width="1.5" stroke="currentColor" fill="currentColor">
        <path d="M256 144C256 117.5 277.5 96 304 96L336 96C362.5 96 384 117.5 384 144L384 496C384 522.5 362.5 544 336 544L304 544C277.5 544 256 522.5 256 496L256 144zM64 336C64 309.5 85.5 288 112 288L144 288C170.5 288 192 309.5 192 336L192 496C192 522.5 170.5 544 144 544L112 544C85.5 544 64 522.5 64 496L64 336zM496 160L528 160C554.5 160 576 181.5 576 208L576 496C576 522.5 554.5 544 528 544L496 544C469.5 544 448 522.5 448 496L448 208C448 181.5 469.5 160 496 160z"/>
    </symbol>

    <!-- credit-card -->
    <symbol id="credit-card" viewBox="0 0 640 640" stroke-width="1" stroke="currentColor" fill="currentColor">
        <path d="M512 176C520.8 176 528 183.2 528 192L528 224L112 224L112 192C112 183.2 119.2 176 128 176L512 176zM528 288L528 448C528 456.8 520.8 464 512 464L128 464C119.2 464 112 456.8 112 448L112 288L528 288zM128 128C92.7 128 64 156.7 64 192L64 448C64 483.3 92.7 512 128 512L512 512C547.3 512 576 483.3 576 448L576 192C576 156.7 547.3 128 512 128L128 128zM144 408C144 421.3 154.7 432 168 432L216 432C229.3 432 240 421.3 240 408C240 394.7 229.3 384 216 384L168 384C154.7 384 144 394.7 144 408zM288 408C288 421.3 298.7 432 312 432L376 432C389.3 432 400 421.3 400 408C400 394.7 389.3 384 376 384L312 384C298.7 384 288 394.7 288 408z"/>
    </symbol>

    <!-- bank-notes -->
    <symbol id="bank-notes" viewBox="0 0 24 24" stroke-width="1.5" stroke="currentColor" fill="currentColor">
        <path stroke-linecap="round" stroke-linejoin="round" d="M2.25 18.75a60.07 60.07 0 0 1 15.797 2.101c.727.198 1.453-.342 1.453-1.096V18.75M3.75 4.5v.75A.75.75 0 0 1 3 6h-.75m0 0v-.375c0-.621.504-1.125 1.125-1.125H20.25M2.25 6v9m18-10.5v.75c0 .414.336.75.75.75h.75m-1.5-1.5h.375c.621 0 1.125.504 1.125 1.125v9.75c0 .621-.504 1.125-1.125 1.125h-.375m1.5-1.5H21a.75.75 0 0 0-.75.75v.75m0 0H3.75m0 0h-.375a1.125 1.125 0 0 1-1.125-1.125V15m1.5 1.5v-.75A.75.75 0 0 0 3 15h-.75M15 10.5a3 3 0 1 1-6 0 3 3 0 0 1 6 0Zm3 0h.008v.008H18V10.5Zm-12 0h.008v.008H6V10.5Z" />
    </symbol>

    <!-- mobile-phone -->
    <symbol id="mobile-phone" viewBox="0 0 640 640" stroke-width="1" stroke="currentColor" fill="currentColor">
        <path d="M144 128C144 92.7 172.7 64 208 64L432 64C467.3 64 496 92.7 496 128L496 512C496 547.3 467.3 576 432 576L208 576C172.7 576 144 547.3 144 512L144 128zM208 128L208 432L432 432L432 128L208 128zM320 536C337.7 536 352 521.7 352 504C352 486.3 337.7 472 320 472C302.3 472 288 486.3 288 504C288 521.7 302.3 536 320 536z"/>
    </symbol>

    <!-- qr-code -->
    <symbol id="qr-code" viewBox="0 0 640 640" stroke-width="1" stroke="currentColor" fill="currentColor">
        <path d="M160 224L224 224L224 160L160 160L160 224zM96 144C96 117.5 117.5 96 144 96L240 96C266.5 96 288 117.5 288 144L288 240C288 266.5 266.5 288 240 288L144 288C117.5 288 96 266.5 96 240L96 144zM160 480L224 480L224 416L160 416L160 480zM96 400C96 373.5 117.5 352 144 352L240 352C266.5 352 288 373.5 288 400L288 496C288 522.5 266.5 544 240 544L144 544C117.5 544 96 522.5 96 496L96 400zM416 160L416 224L480 224L480 160L416 160zM400 96L496 96C522.5 96 544 117.5 544 144L544 240C544 266.5 522.5 288 496 288L400 288C373.5 288 352 266.5 352 240L352 144C352 117.5 373.5 96 400 96zM384 416C366.3 416 352 401.7 352 384C352 366.3 366.3 352 384 352C401.7 352 416 366.3 416 384C416 401.7 401.7 416 384 416zM384 480C401.7 480 416 494.3 416 512C416 529.7 401.7 544 384 544C366.3 544 352 529.7 352 512C352 494.3 366.3 480 384 480zM480 512C480 494.3 494.3 480 512 480C529.7 480 544 494.3 544 512C544 529.7 529.7 544 512 544C494.3 544 480 529.7 480 512zM512 416C494.3 416 480 401.7 480 384C480 366.3 494.3 352 512 352C529.7 352 544 366.3 544 384C544 401.7 529.7 416 512 416zM480 448C480 465.7 465.7 480 448 480C430.3 480 416 465.7 416 448C416 430.3 430.3 416 448 416C465.7 416 480 430.3 480 448z"/>
    </symbol>

    <!-- bank -->
    <symbol id="bank" viewBox="0 0 640 640" stroke-width="1" stroke="currentColor" fill="currentColor">
        <path d="M335.9 84.2C326.1 78.6 314 78.6 304.1 84.2L80.1 212.2C67.5 219.4 61.3 234.2 65 248.2C68.7 262.2 81.5 272 96 272L128 272L128 480L128 480L76.8 518.4C68.7 524.4 64 533.9 64 544C64 561.7 78.3 576 96 576L544 576C561.7 576 576 561.7 576 544C576 533.9 571.3 524.4 563.2 518.4L512 480L512 272L544 272C558.5 272 571.2 262.2 574.9 248.2C578.6 234.2 572.4 219.4 559.8 212.2L335.8 84.2zM464 272L464 480L400 480L400 272L464 272zM352 272L352 480L288 480L288 272L352 272zM240 272L240 480L176 480L176 272L240 272zM320 160C337.7 160 352 174.3 352 192C352 209.7 337.7 224 320 224C302.3 224 288 209.7 288 192C288 174.3 302.3 160 320 160z"/>
    </symbol>

    <!-- utensils -->
    <symbol id="utensils" viewBox="0 0 640 640" stroke-width="1.5" stroke="currentColor" fill="currentColor">
        <path d="M127.9 78.4C127.1 70.2 120.2 64 112 64C103.8 64 96.9 70.2 96 78.3L81.9 213.7C80.6 219.7 80 225.8 80 231.9C80 277.8 115.1 315.5 160 319.6L160 544C160 561.7 174.3 576 192 576C209.7 576 224 561.7 224 544L224 319.6C268.9 315.5 304 277.8 304 231.9C304 225.8 303.4 219.7 302.1 213.7L287.9 78.3C287.1 70.2 280.2 64 272 64C263.8 64 256.9 70.2 256.1 78.4L242.5 213.9C241.9 219.6 237.1 224 231.4 224C225.6 224 220.8 219.6 220.2 213.8L207.9 78.6C207.2 70.3 200.3 64 192 64C183.7 64 176.8 70.3 176.1 78.6L163.8 213.8C163.3 219.6 158.4 224 152.6 224C146.8 224 142 219.6 141.5 213.9L127.9 78.4zM512 64C496 64 384 96 384 240L384 352C384 387.3 412.7 416 448 416L480 416L480 544C480 561.7 494.3 576 512 576C529.7 576 544 561.7 544 544L544 96C544 78.3 529.7 64 512 64z"/>
    </symbol>

    <!-- car-side -->
    <symbol id="car-side" viewBox="0 0 640 640" stroke-width="1.5" stroke="currentColor" fill="currentColor">
        <path d="M147 170.7L117.2 256L240.1 256L240.1 160L162.2 160C155.4 160 149.3 164.3 147.1 170.7zM48.6 257.9L86.5 149.6C97.8 117.5 128.1 96 162.1 96L360 96C385.2 96 408.9 107.9 424 128L520.2 256.3C587.1 260.5 640 316.1 640 384L640 400C640 435.3 611.3 464 576 464L559.6 464C555.6 508.9 517.9 544 472 544C426.1 544 388.4 508.9 384.4 464L239.7 464C235.7 508.9 198 544 152.1 544C106.2 544 68.5 508.9 64.5 464L64.1 464C28.8 464 .1 435.3 .1 400L.1 320C.1 289.9 20.8 264.7 48.7 257.9zM440 256L372.8 166.4C369.8 162.4 365 160 360 160L288 160L288 256L440 256zM152 496C174.1 496 192 478.1 192 456C192 433.9 174.1 416 152 416C129.9 416 112 433.9 112 456C112 478.1 129.9 496 152 496zM512 456C512 433.9 494.1 416 472 416C449.9 416 432 433.9 432 456C432 478.1 449.9 496 472 496C494.1 496 512 478.1 512 456z"/>
    </symbol>

    <!-- shopping-bag -->
    <symbol id="shopping-bag" viewBox="0 0 640 640" stroke-width="1" stroke="currentColor" fill="currentColor">
        <path d="M484.5 168.1C484.3 167 483.8 166 483 165.3C482.2 164.6 481.2 164.1 480.1 164.1C478.1 164.1 442.9 163.3 442.9 163.3C442.9 163.3 421.3 142.5 413.3 134.5L413.3 567.2L539 536C539 536 485 170.5 484.6 168.1zM384.9 134.5C383 128.4 380.6 122.6 377.7 116.9C367.3 96.9 351.7 86 333.3 86C332 86 330.6 86.1 329.3 86.4C328.9 85.6 328.1 85.2 327.7 84.4C319.7 75.6 309.3 71.6 296.9 72C272.9 72.8 248.9 90 229.7 120.8C216.1 142.4 205.7 169.6 202.9 190.9C175.3 199.3 156.1 205.3 155.7 205.7C141.7 210.1 141.3 210.5 139.7 223.7C138.5 233.7 101.7 515.5 101.7 515.5L404.3 568L404.3 129.7C402.8 129.8 401.4 129.9 399.9 130.1C399.9 130.1 394.3 131.7 385.1 134.5zM329.6 151.7C313.6 156.5 296 162.1 278.8 167.3C283.6 148.5 293.2 129.7 304.4 117.3C308.8 112.9 314.8 107.7 321.6 104.5C328.4 118.9 330 138.5 329.6 151.7zM296.8 88.4C301.8 88.2 306.8 89.5 311.2 92C304.8 95.2 298.4 100.4 292.4 106.4C277.2 122.8 265.6 148.4 260.8 172.9C246.4 177.3 232 181.7 218.8 185.7C227.6 147.3 260 89.3 296.8 88.5zM250.4 308.6C252 334.2 319.6 339.8 323.6 400.3C326.4 447.9 298.4 480.4 258 482.8C209.2 486 182.4 457.2 182.4 457.2L192.8 413.2C192.8 413.2 219.6 433.6 241.2 432C255.2 431.2 260.4 419.6 260 411.6C258 378 202.8 380 199.2 324.7C196 278.3 226.4 231.4 293.7 227C319.7 225.4 332.9 231.8 332.9 231.8L317.7 289.4C317.7 289.4 300.5 281.4 280.1 283C250.5 285 250.1 303.8 250.5 308.6zM345.6 146.9C345.6 134.9 344 117.7 338.4 103.3C356.8 106.9 365.6 127.3 369.6 139.7C362.4 141.7 354.4 144.1 345.6 146.9z"/>
    </symbol>

    <!-- bulb -->
    <symbol id="bulb" viewBox="0 0 640 640" stroke-width="1" stroke="currentColor" fill="currentColor">
        <path d="M424.5 355.1C449 329.2 464 294.4 464 256C464 176.5 399.5 112 320 112C240.5 112 176 176.5 176 256C176 294.4 191 329.2 215.5 355.1C236.8 377.5 260.4 409.1 268.8 448L371.2 448C379.6 409 403.2 377.5 424.5 355.1zM459.3 388.1C435.7 413 416 443.4 416 477.7L416 496C416 540.2 380.2 576 336 576L304 576C259.8 576 224 540.2 224 496L224 477.7C224 443.4 204.3 413 180.7 388.1C148 353.7 128 307.2 128 256C128 150 214 64 320 64C426 64 512 150 512 256C512 307.2 492 353.7 459.3 388.1zM272 248C272 261.3 261.3 272 248 272C234.7 272 224 261.3 224 248C224 199.4 263.4 160 312 160C325.3 160 336 170.7 336 184C336 197.3 325.3 208 312 208C289.9 208 272 225.9 272 248z"/>
    </symbol>

    <!-- Dumbells -->
    <symbol id="dumbells" viewBox="0 0 640 640" stroke-width="1" stroke="currentColor" fill="currentColor">
        <path d="M96 176C96 149.5 117.5 128 144 128C170.5 128 192 149.5 192 176L192 288L448 288L448 176C448 149.5 469.5 128 496 128C522.5 128 544 149.5 544 176L544 192L560 192C586.5 192 608 213.5 608 240L608 288C625.7 288 640 302.3 640 320C640 337.7 625.7 352 608 352L608 400C608 426.5 586.5 448 560 448L544 448L544 464C544 490.5 522.5 512 496 512C469.5 512 448 490.5 448 464L448 352L192 352L192 464C192 490.5 170.5 512 144 512C117.5 512 96 490.5 96 464L96 448L80 448C53.5 448 32 426.5 32 400L32 352C14.3 352 0 337.7 0 320C0 302.3 14.3 288 32 288L32 240C32 213.5 53.5 192 80 192L96 192L96 176z"/>
    </symbol>

    <!-- Entertainment -->
    <symbol id="entertainment" viewBox="0 0 640 640" stroke-width="1" stroke="currentColor" fill="currentColor">
        <path d="M96 160L96 400L544 400L544 160L96 160zM32 160C32 124.7 60.7 96 96 96L544 96C579.3 96 608 124.7 608 160L608 400C608 435.3 579.3 464 544 464L96 464C60.7 464 32 435.3 32 400L32 160zM192 512L448 512C465.7 512 480 526.3 480 544C480 561.7 465.7 576 448 576L192 576C174.3 576 160 561.7 160 544C160 526.3 174.3 512 192 512z"/>
    </symbol>

    <!-- Settings -->
    <symbol id="settings" viewBox="0 0 640 640" stroke-width="1" stroke="currentColor" fill="currentColor">
        <path d="M259.1 73.5C262.1 58.7 275.2 48 290.4 48L350.2 48C365.4 48 378.5 58.7 381.5 73.5L396 143.5C410.1 149.5 423.3 157.2 435.3 166.3L503.1 143.8C517.5 139 533.3 145 540.9 158.2L570.8 210C578.4 223.2 575.7 239.8 564.3 249.9L511 297.3C511.9 304.7 512.3 312.3 512.3 320C512.3 327.7 511.8 335.3 511 342.7L564.4 390.2C575.8 400.3 578.4 417 570.9 430.1L541 481.9C533.4 495 517.6 501.1 503.2 496.3L435.4 473.8C423.3 482.9 410.1 490.5 396.1 496.6L381.7 566.5C378.6 581.4 365.5 592 350.4 592L290.6 592C275.4 592 262.3 581.3 259.3 566.5L244.9 496.6C230.8 490.6 217.7 482.9 205.6 473.8L137.5 496.3C123.1 501.1 107.3 495.1 99.7 481.9L69.8 430.1C62.2 416.9 64.9 400.3 76.3 390.2L129.7 342.7C128.8 335.3 128.4 327.7 128.4 320C128.4 312.3 128.9 304.7 129.7 297.3L76.3 249.8C64.9 239.7 62.3 223 69.8 209.9L99.7 158.1C107.3 144.9 123.1 138.9 137.5 143.7L205.3 166.2C217.4 157.1 230.6 149.5 244.6 143.4L259.1 73.5zM320.3 400C364.5 399.8 400.2 363.9 400 319.7C399.8 275.5 363.9 239.8 319.7 240C275.5 240.2 239.8 276.1 240 320.3C240.2 364.5 276.1 400.2 320.3 400z"/>
    </symbol>

    <!-- Arrow right-left -->
    <symbol id="arrow-right-left" viewBox="0 0 24 24" stroke-width="1.5" stroke="currentColor" fill="currentColor">
        <path stroke-linecap="round" stroke-linejoin="round" d="M7.5 21 3 16.5m0 0L7.5 12M3 16.5h13.5m0-13.5L21 7.5m0 0L16.5 12M21 7.5H7.5" />
    </symbol>

    <!-- user group -->
    <symbol id="user-group" viewBox="0 0 24 24" stroke-width="1" stroke="currentColor" fill="currentColor">
        <path stroke-linecap="round" stroke-linejoin="round" d="M18 18.72a9.094 9.094 0 0 0 3.741-.479 3 3 0 0 0-4.682-2.72m.94 3.198.001.031c0 .225-.012.447-.037.666A11.944 11.944 0 0 1 12 21c-2.17 0-4.207-.576-5.963-1.584A6.062 6.062 0 0 1 6 18.719m12 0a5.971 5.971 0 0 0-.941-3.197m0 0A5.995 5.995 0 0 0 12 12.75a5.995 5.995 0 0 0-5.058 2.772m0 0a3 3 0 0 0-4.681 2.72 8.986 8.986 0 0 0 3.74.477m.94-3.197a5.971 5.971 0 0 0-.94 3.197M15 6.75a3 3 0 1 1-6 0 3 3 0 0 1 6 0Zm6 3a2.25 2.25 0 1 1-4.5 0 2.25 2.25 0 0 1 4.5 0Zm-13.5 0a2.25 2.25 0 1 1-4.5 0 2.25 2.25 0 0 1 4.5 0Z" />
    </symbol>

    <!-- Arrow refresh -->
    <symbol id="arrow-refresh" viewBox="0 0 640 640" stroke-width="1" stroke="currentColor" fill="currentColor">
        <path d="M129.9 292.5C143.2 199.5 223.3 128 320 128C373 128 421 149.5 455.8 184.2C456 184.4 456.2 184.6 456.4 184.8L464 192L416.1 192C398.4 192 384.1 206.3 384.1 224C384.1 241.7 398.4 256 416.1 256L544.1 256C561.8 256 576.1 241.7 576.1 224L576.1 96C576.1 78.3 561.8 64 544.1 64C526.4 64 512.1 78.3 512.1 96L512.1 149.4L500.8 138.7C454.5 92.6 390.5 64 320 64C191 64 84.3 159.4 66.6 283.5C64.1 301 76.2 317.2 93.7 319.7C111.2 322.2 127.4 310 129.9 292.6zM573.4 356.5C575.9 339 563.7 322.8 546.3 320.3C528.9 317.8 512.6 330 510.1 347.4C496.8 440.4 416.7 511.9 320 511.9C267 511.9 219 490.4 184.2 455.7C184 455.5 183.8 455.3 183.6 455.1L176 447.9L223.9 447.9C241.6 447.9 255.9 433.6 255.9 415.9C255.9 398.2 241.6 383.9 223.9 383.9L96 384C87.5 384 79.3 387.4 73.3 393.5C67.3 399.6 63.9 407.7 64 416.3L65 543.3C65.1 561 79.6 575.2 97.3 575C115 574.8 129.2 560.4 129 542.7L128.6 491.2L139.3 501.3C185.6 547.4 249.5 576 320 576C449 576 555.7 480.6 573.4 356.5z"/>
    </symbol>

    <!-- Clock-rotate-left -->
    <symbol id="clock-rotate-left" viewBox="0 0 640 640" stroke-width="1" stroke="currentColor" fill="currentColor">
        <path d="M320 128C426 128 512 214 512 320C512 426 426 512 320 512C254.8 512 197.1 479.5 162.4 429.7C152.3 415.2 132.3 411.7 117.8 421.8C103.3 431.9 99.8 451.9 109.9 466.4C156.1 532.6 233 576 320 576C461.4 576 576 461.4 576 320C576 178.6 461.4 64 320 64C234.3 64 158.5 106.1 112 170.7L112 144C112 126.3 97.7 112 80 112C62.3 112 48 126.3 48 144L48 256C48 273.7 62.3 288 80 288L104.6 288C105.1 288 105.6 288 106.1 288L192.1 288C209.8 288 224.1 273.7 224.1 256C224.1 238.3 209.8 224 192.1 224L153.8 224C186.9 166.6 249 128 320 128zM344 216C344 202.7 333.3 192 320 192C306.7 192 296 202.7 296 216L296 320C296 326.4 298.5 332.5 303 337L375 409C384.4 418.4 399.6 418.4 408.9 409C418.2 399.6 418.3 384.4 408.9 375.1L343.9 310.1L343.9 216z"/>
    </symbol>

    <!-- tick -->
    <symbol id="tick" viewBox="0 0 640 640" stroke-width="1" stroke="currentColor" fill="currentColor">
        <path d="M530.8 134.1C545.1 144.5 548.3 164.5 537.9 178.8L281.9 530.8C276.4 538.4 267.9 543.1 258.5 543.9C249.1 544.7 240 541.2 233.4 534.6L105.4 406.6C92.9 394.1 92.9 373.8 105.4 361.3C117.9 348.8 138.2 348.8 150.7 361.3L252.2 462.8L486.2 141.1C496.6 126.8 516.6 123.6 530.9 134z"/>
    </symbol>

    <!-- search -->
    <symbol id="search" viewBox="0 0 640 640" stroke-width="1" stroke="currentColor" fill="currentColor">
        <path d="M480 272C480 317.9 465.1 360.3 440 394.7L566.6 521.4C579.1 533.9 579.1 554.2 566.6 566.7C554.1 579.2 533.8 579.2 521.3 566.7L394.7 440C360.3 465.1 317.9 480 272 480C157.1 480 64 386.9 64 272C64 157.1 157.1 64 272 64C386.9 64 480 157.1 480 272zM272 416C351.5 416 416 351.5 416 272C416 192.5 351.5 128 272 128C192.5 128 128 192.5 128 272C128 351.5 192.5 416 272 416z"/>
    </symbol>

    <!-- times -->
    <symbol id="times" viewBox="0 0 640 640" stroke-width="1" stroke="currentColor" fill="currentColor">
        <path d="M183.1 137.4C170.6 124.9 150.3 124.9 137.8 137.4C125.3 149.9 125.3 170.2 137.8 182.7L275.2 320L137.9 457.4C125.4 469.9 125.4 490.2 137.9 502.7C150.4 515.2 170.7 515.2 183.2 502.7L320.5 365.3L457.9 502.6C470.4 515.1 490.7 515.1 503.2 502.6C515.7 490.1 515.7 469.8 503.2 457.3L365.8 320L503.1 182.6C515.6 170.1 515.6 149.8 503.1 137.3C490.6 124.8 470.3 124.8 457.8 137.3L320.5 274.7L183.1 137.4z"/>
    </symbol>

    <!-- sliders -->
    <symbol id="sliders" viewBox="0 0 640 640" stroke-width="1" stroke="currentColor" fill="currentColor">
        <path d="M96 128C78.3 128 64 142.3 64 160C64 177.7 78.3 192 96 192L182.7 192C195 220.3 223.2 240 256 240C288.8 240 317 220.3 329.3 192L544 192C561.7 192 576 177.7 576 160C576 142.3 561.7 128 544 128L329.3 128C317 99.7 288.8 80 256 80C223.2 80 195 99.7 182.7 128L96 128zM96 288C78.3 288 64 302.3 64 320C64 337.7 78.3 352 96 352L342.7 352C355 380.3 383.2 400 416 400C448.8 400 477 380.3 489.3 352L544 352C561.7 352 576 337.7 576 320C576 302.3 561.7 288 544 288L489.3 288C477 259.7 448.8 240 416 240C383.2 240 355 259.7 342.7 288L96 288zM96 448C78.3 448 64 462.3 64 480C64 497.7 78.3 512 96 512L150.7 512C163 540.3 191.2 560 224 560C256.8 560 285 540.3 297.3 512L544 512C561.7 512 576 497.7 576 480C576 462.3 561.7 448 544 448L297.3 448C285 419.7 256.8 400 224 400C191.2 400 163 419.7 150.7 448L96 448z"/>
    </symbol>

    <!-- Heart -->
    <symbol id="heart" viewBox="0 0 24 24" stroke-width="1" stroke="currentColor" fill="currentColor">
        <path stroke-linecap="round" stroke-linejoin="round" d="M21 8.25c0-2.485-2.099-4.5-4.688-4.5-1.935 0-3.597 1.126-4.312 2.733-.715-1.607-2.377-2.733-4.313-2.733C5.1 3.75 3 5.765 3 8.25c0 7.22 9 12 9 12s9-4.78 9-12Z" />
    </symbol>
    
    <!-- Gift -->
    <symbol id="gift" viewBox="0 0 640 640" stroke-width="1" stroke="currentColor" fill="currentColor">
        <path d="M385.5 132.8C393.1 119.9 406.9 112 421.8 112L424 112C446.1 112 464 129.9 464 152C464 174.1 446.1 192 424 192L350.7 192L385.5 132.8zM254.5 132.8L289.3 192L216 192C193.9 192 176 174.1 176 152C176 129.9 193.9 112 216 112L218.2 112C233.1 112 247 119.9 254.5 132.8zM344.1 108.5L320 149.5L295.9 108.5C279.7 80.9 250.1 64 218.2 64L216 64C167.4 64 128 103.4 128 152C128 166.4 131.5 180 137.6 192L96 192C78.3 192 64 206.3 64 224L64 256C64 273.7 78.3 288 96 288L544 288C561.7 288 576 273.7 576 256L576 224C576 206.3 561.7 192 544 192L502.4 192C508.5 180 512 166.4 512 152C512 103.4 472.6 64 424 64L421.8 64C389.9 64 360.3 80.9 344.1 108.4zM544 336L344 336L344 544L480 544C515.3 544 544 515.3 544 480L544 336zM296 336L96 336L96 480C96 515.3 124.7 544 160 544L296 544L296 336z"/>
    </symbol>
    
    <!-- Book open -->
    <symbol id="book-open" viewBox="0 0 640 640" stroke-width="1" stroke="currentColor" fill="currentColor">
        <path d="M320 205.3L320 514.6L320.5 514.4C375.1 491.7 433.7 480 492.8 480L512 480L512 160L492.8 160C450.6 160 408.7 168.4 369.7 184.6C352.9 191.6 336.3 198.5 320 205.3zM294.9 125.5L320 136L345.1 125.5C391.9 106 442.1 96 492.8 96L528 96C554.5 96 576 117.5 576 144L576 496C576 522.5 554.5 544 528 544L492.8 544C442.1 544 391.9 554 345.1 573.5L332.3 578.8C324.4 582.1 315.6 582.1 307.7 578.8L294.9 573.5C248.1 554 197.9 544 147.2 544L112 544C85.5 544 64 522.5 64 496L64 144C64 117.5 85.5 96 112 96L147.2 96C197.9 96 248.1 106 294.9 125.5z"/>
    </symbol>

    <!-- Paper airplane -->
    <symbol id="paper-airplane" viewBox="0 0 640 640" stroke-width="1" stroke="currentColor" fill="currentColor">
        <path d="M322.5 351.7L523.4 150.9L391 520.3L322.5 351.7zM489.4 117L288.6 317.8L120 249.3L489.4 117zM70.1 280.8L275.9 364.4L359.5 570.2C364.8 583.3 377.6 591.9 391.8 591.9C406.5 591.9 419.6 582.7 424.6 568.8L602.6 72C606.1 62.2 603.6 51.4 596.3 44C589 36.6 578.1 34.2 568.3 37.7L71.4 215.7C57.5 220.7 48.3 233.8 48.3 248.5C48.3 262.7 56.9 275.5 70 280.8z"/>
    </symbol>

    <!-- Wrench screwdriver -->
    <symbol id="wrench-screwdriver" viewBox="0 0 640 640" stroke-width="1" stroke="currentColor" fill="currentColor">
        <path d="M102.8 57.3C108.2 51.9 116.6 51.1 123 55.3L241.9 134.5C250.8 140.4 256.1 150.4 256.1 161.1L256.1 210.7L346.9 301.5C380.2 286.5 420.8 292.6 448.1 320L574.2 446.1C592.9 464.8 592.9 495.2 574.2 514L514.1 574.1C495.4 592.8 465 592.8 446.2 574.1L320.1 448C292.7 420.6 286.6 380.1 301.6 346.8L210.8 256L161.2 256C150.5 256 140.5 250.7 134.6 241.8L55.4 122.9C51.2 116.6 52 108.1 57.4 102.7L102.8 57.3zM247.8 360.8C241.5 397.7 250.1 436.7 274 468L179.1 563C151 591.1 105.4 591.1 77.3 563C49.2 534.9 49.2 489.3 77.3 461.2L212.7 325.7L247.9 360.8zM416.1 64C436.2 64 455.5 67.7 473.2 74.5C483.2 78.3 485 91 477.5 98.6L420.8 155.3C417.8 158.3 416.1 162.4 416.1 166.6L416.1 208C416.1 216.8 423.3 224 432.1 224L473.5 224C477.7 224 481.8 222.3 484.8 219.3L541.5 162.6C549.1 155.1 561.8 156.9 565.6 166.9C572.4 184.6 576.1 203.9 576.1 224C576.1 267.2 558.9 306.3 531.1 335.1L482 286C448.9 253 403.5 240.3 360.9 247.6L304.1 190.8L304.1 161.1L303.9 156.1C303.1 143.7 299.5 131.8 293.4 121.2C322.8 86.2 366.8 64 416.1 63.9z"/>
    </symbol>

    <!-- Musical note -->
    <symbol id="musical-note" viewBox="0 0 640 640" stroke-width="1" stroke="currentColor" fill="currentColor">
        <path d="M509.9 452.2C503.5 479.6 482.7 495 454.8 500.2C430.3 504.7 409.9 505.8 390.3 490C366.4 469.9 366.1 436.6 387.6 415.6C404.6 399.4 428.5 396.1 464.4 389.8C470.4 388.7 475.6 387.3 480 382.4C486.4 375.2 484.4 378.3 484.4 219.2C484.4 208 478.9 204.9 467.4 206.9C459.2 208.3 281.7 241.5 281.7 241.5C271.5 243.7 268.3 246.7 268.3 258.2C268.3 492.9 269.4 482.1 265.8 497.7C261.6 515.9 250.4 529.6 235.6 537.2C218.8 546.5 188.4 550.6 172.2 547.6C129 539.5 113.8 489.6 143.1 461C160.1 444.8 184 441.5 219.9 435.2C225.9 434.1 231.1 432.7 235.5 427.8C245.6 416.3 237.3 171.2 240.7 157.6C241.5 152.4 243.7 148 247.8 144.7C252 141.2 259.6 139.2 261.2 139.2C465.2 101 490.1 96.1 493.6 96.1C505.1 95.3 511.7 102.1 511.7 113.7C511.9 458.2 512.8 439.7 509.9 452.2z"/>
    </symbol>

    <!-- Briefcase -->
    <symbol id="briefcase" viewBox="0 0 640 640" stroke-width="1" stroke="currentColor" fill="currentColor">
        <path d="M264 112L376 112C380.4 112 384 115.6 384 120L384 160L256 160L256 120C256 115.6 259.6 112 264 112zM208 120L208 160L128 160C92.7 160 64 188.7 64 224L64 320L576 320L576 224C576 188.7 547.3 160 512 160L432 160L432 120C432 89.1 406.9 64 376 64L264 64C233.1 64 208 89.1 208 120zM576 368L384 368L384 384C384 401.7 369.7 416 352 416L288 416C270.3 416 256 401.7 256 384L256 368L64 368L64 480C64 515.3 92.7 544 128 544L512 544C547.3 544 576 515.3 576 480L576 368z"/>
    </symbol>

    <!-- Face smile -->
    <symbol id="face-smile" viewBox="0 0 24 24" stroke-width="1" stroke="currentColor" fill="currentColor">
        <path stroke-linecap="round" stroke-linejoin="round" d="M15.182 15.182a4.5 4.5 0 0 1-6.364 0M21 12a9 9 0 1 1-18 0 9 9 0 0 1 18 0ZM9.75 9.75c0 .414-.168.75-.375.75S9 10.164 9 9.75 9.168 9 9.375 9s.375.336.375.75Zm-.375 0h.008v.015h-.008V9.75Zm5.625 0c0 .414-.168.75-.375.75s-.375-.336-.375-.75.168-.75.375-.75.375.336.375.75Zm-.375 0h.008v.015h-.008V9.75Z" />
    </symbol>

    <!-- Medicine -->
    <symbol id="medicine" viewBox="0 0 640 640" stroke-width="1" stroke="currentColor" fill="currentColor">
        <path d="M128 176C128 149.5 149.5 128 176 128C202.5 128 224 149.5 224 176L224 288L128 288L128 176zM240 432C240 383.3 258.1 338.8 288 305L288 176C288 114.1 237.9 64 176 64C114.1 64 64 114.1 64 176L64 464C64 525.9 114.1 576 176 576C213.3 576 246.3 557.8 266.7 529.7C249.7 501.1 240 467.7 240 432zM304.7 499.4C309.3 508.1 321 509.1 328 502.1L502.1 328C509.1 321 508.1 309.3 499.4 304.7C479.3 294 456.4 288 432 288C352.5 288 288 352.5 288 432C288 456.3 294 479.3 304.7 499.4zM361.9 536C354.9 543 355.9 554.7 364.6 559.3C384.7 570 407.6 576 432 576C511.5 576 576 511.5 576 432C576 407.7 570 384.7 559.3 364.6C554.7 355.9 543 354.9 536 361.9L361.9 536z"/>
    </symbol>

    <!-- earning -->
    <symbol id="earning" viewBox="0 0 640 640" stroke-width="1" stroke="currentColor" fill="currentColor">
        <path d="M320 48C306.7 48 296 58.7 296 72L296 84L294.2 84C257.6 84 228 113.7 228 150.2C228 183.6 252.9 211.8 286 215.9L347 223.5C352.1 224.1 356 228.5 356 233.7C356 239.4 351.4 243.9 345.8 243.9L272 244C256.5 244 244 256.5 244 272C244 287.5 256.5 300 272 300L296 300L296 312C296 325.3 306.7 336 320 336C333.3 336 344 325.3 344 312L344 300L345.8 300C382.4 300 412 270.3 412 233.8C412 200.4 387.1 172.2 354 168.1L293 160.5C287.9 159.9 284 155.5 284 150.3C284 144.6 288.6 140.1 294.2 140.1L360 140C375.5 140 388 127.5 388 112C388 96.5 375.5 84 360 84L344 84L344 72C344 58.7 333.3 48 320 48zM141.3 405.5L98.7 448L64 448C46.3 448 32 462.3 32 480L32 544C32 561.7 46.3 576 64 576L384.5 576C413.5 576 441.8 566.7 465.2 549.5L591.8 456.2C609.6 443.1 613.4 418.1 600.3 400.3C587.2 382.5 562.2 378.7 544.4 391.8L424.6 480L312 480C298.7 480 288 469.3 288 456C288 442.7 298.7 432 312 432L384 432C401.7 432 416 417.7 416 400C416 382.3 401.7 368 384 368L231.8 368C197.9 368 165.3 381.5 141.3 405.5z"/>
    </symbol>

    <!-- carrot -->
    <symbol id="carrot" viewBox="0 0 640 640" stroke-width="1" stroke="currentColor" fill="currentColor">
        <path d="M453.1 27.3L440.9 39.4C409.7 70.6 409.7 121.3 440.9 152.5C456.5 168.1 472.1 183.7 487.8 199.4C519 230.6 569.7 230.6 600.9 199.4L613 187.3C619.2 181.1 619.2 170.9 613 164.7L600.9 152.6C569.7 121.4 519 121.4 487.8 152.6C519 121.4 519 70.7 487.8 39.5L475.7 27.3C469.5 21.1 459.3 21.1 453.1 27.3zM331.6 160C286.4 160 244.5 180.4 216.6 214.3L273.3 271C282.7 280.4 282.7 295.6 273.3 304.9C263.9 314.2 248.7 314.3 239.4 304.9L191.6 257.2L67.2 530.8C61.7 542.9 64.3 557.2 73.7 566.7C83.1 576.2 97.4 578.7 109.6 573.2L251.2 508.8L207.4 465C198 455.6 198 440.4 207.4 431.1C216.8 421.8 232 421.7 241.3 431.1L297.8 487.6L393.1 444.3C446.2 420.2 480.3 367.2 480.3 308.8C480.3 226.6 413.7 160 331.5 160z"/>
    </symbol>

    <!-- donation -->
    <symbol id="donation" viewBox="0 0 640 640" stroke-width="1" stroke="currentColor" fill="currentColor">
        <path d="M128 288C128 182 214 96 320 96C426 96 512 182 512 288C512 394 426 480 320 480C214 480 128 394 128 288zM304 196L304 200C275.2 200.3 252 223.7 252 252.5C252 278.2 270.5 300.1 295.9 304.3L337.6 311.3C343.6 312.3 348 317.5 348 323.6C348 330.5 342.4 336.1 335.5 336.1L280 336C269 336 260 345 260 356C260 367 269 376 280 376L304 376L304 380C304 391 313 400 324 400C335 400 344 391 344 380L344 375.3C369 371.2 388 349.6 388 323.5C388 297.8 369.5 275.9 344.1 271.7L302.4 264.7C296.4 263.7 292 258.5 292 252.4C292 245.5 297.6 239.9 304.5 239.9L352 239.9C363 239.9 372 230.9 372 219.9C372 208.9 363 199.9 352 199.9L344 199.9L344 195.9C344 184.9 335 175.9 324 175.9C313 175.9 304 184.9 304 195.9zM80 408L80 512C80 520.8 87.2 528 96 528L544 528C552.8 528 560 520.8 560 512L560 408C560 394.7 570.7 384 584 384C597.3 384 608 394.7 608 408L608 512C608 547.3 579.3 576 544 576L96 576C60.7 576 32 547.3 32 512L32 408C32 394.7 42.7 384 56 384C69.3 384 80 394.7 80 408z"/>
    </symbol>

    <!-- exit -->
    <symbol id="exit">
        <path d="M224 160C241.7 160 256 145.7 256 128C256 110.3 241.7 96 224 96L160 96C107 96 64 139 64 192L64 448C64 501 107 544 160 544L224 544C241.7 544 256 529.7 256 512C256 494.3 241.7 480 224 480L160 480C142.3 480 128 465.7 128 448L128 192C128 174.3 142.3 160 160 160L224 160zM566.6 342.6C579.1 330.1 579.1 309.8 566.6 297.3L438.6 169.3C426.1 156.8 405.8 156.8 393.3 169.3C380.8 181.8 380.8 202.1 393.3 214.6L466.7 288L256 288C238.3 288 224 302.3 224 320C224 337.7 238.3 352 256 352L466.7 352L393.3 425.4C380.8 437.9 380.8 458.2 393.3 470.7C405.8 483.2 426.1 483.2 438.6 470.7L566.6 342.7z"/>
    </symbol>

    <!-- trash -->
    <symbol id="trash" viewBox="0 0 640 640" stroke-width="1" stroke="currentColor" fill="currentColor">
        <path d="M262.2 48C248.9 48 236.9 56.3 232.2 68.8L216 112L120 112C106.7 112 96 122.7 96 136C96 149.3 106.7 160 120 160L520 160C533.3 160 544 149.3 544 136C544 122.7 533.3 112 520 112L424 112L407.8 68.8C403.1 56.3 391.2 48 377.8 48L262.2 48zM128 208L128 512C128 547.3 156.7 576 192 576L448 576C483.3 576 512 547.3 512 512L512 208L464 208L464 512C464 520.8 456.8 528 448 528L192 528C183.2 528 176 520.8 176 512L176 208L128 208zM288 280C288 266.7 277.3 256 264 256C250.7 256 240 266.7 240 280L240 456C240 469.3 250.7 480 264 480C277.3 480 288 469.3 288 456L288 280zM400 280C400 266.7 389.3 256 376 256C362.7 256 352 266.7 352 280L352 456C352 469.3 362.7 480 376 480C389.3 480 400 469.3 400 456L400 280z"/>
    </symbol>

    <!-- chevron-right -->
    <symbol id="chevron-right" viewBox="0 0 640 640" stroke-width="1" stroke="currentColor" fill="currentColor">
        <path d="M471.1 297.4C483.6 309.9 483.6 330.2 471.1 342.7L279.1 534.7C266.6 547.2 246.3 547.2 233.8 534.7C221.3 522.2 221.3 501.9 233.8 489.4L403.2 320L233.9 150.6C221.4 138.1 221.4 117.8 233.9 105.3C246.4 92.8 266.7 92.8 279.2 105.3L471.2 297.3z"/>
    </symbol>

    <!-- moon -->
    <symbol id="moon" viewBox="0 0 640 640" stroke-width="1" stroke="currentColor" fill="currentColor">
        <path d="M303.3 112.7C196.2 121.2 112 210.8 112 320C112 434.9 205.1 528 320 528C353.3 528 384.7 520.2 412.6 506.3C309.2 482.9 232 390.5 232 280C232 214.2 259.4 154.9 303.3 112.7zM64 320C64 178.6 178.6 64 320 64C339.4 64 358.4 66.2 376.7 70.3C386.6 72.5 394 80.8 395.2 90.8C396.4 100.8 391.2 110.6 382.1 115.2C321.5 145.4 280 207.9 280 280C280 381.6 362.4 464 464 464C469 464 473.9 463.8 478.8 463.4C488.9 462.6 498.4 468.2 502.6 477.5C506.8 486.8 504.6 497.6 497.3 504.6C451.3 548.8 388.8 576 320 576C178.6 576 64 461.4 64 320z"/>
    </symbol>

    <!-- sun -->
    <symbol id="sun" viewBox="0 0 640 640" stroke-width="1" stroke="currentColor" fill="currentColor">
        <path d="M320 32C328 32 335.4 36 339.9 42.6L398.7 130L502.1 109.8C509.9 108.3 518 110.7 523.7 116.4C529.4 122.1 531.8 130.2 530.3 138L510 241.3L597.4 300.1C604 304.5 608 312 608 320C608 328 604 335.4 597.4 339.9L510 398.7L530.2 502C531.7 509.8 529.3 517.9 523.6 523.6C517.9 529.3 509.8 531.7 502 530.2L398.7 510L339.9 597.4C335.4 604 328 608 320 608C312 608 304.6 604 300.1 597.4L241.3 510L137.9 530.2C130.1 531.7 122 529.3 116.3 523.6C110.6 517.9 108.2 509.8 109.7 502L130 398.7L42.6 339.9C36 335.4 32 328 32 320C32 312 36 304.6 42.6 300.1L130 241.3L109.8 137.9C108.3 130.1 110.7 122 116.4 116.3C122.1 110.6 130.2 108.2 138 109.7L241.3 129.9L300.1 42.5L301.9 40.2C306.4 35 313 32 320 32zM272.2 170C266.8 178 257.2 182 247.7 180.2L163.7 163.8L180.1 247.8C181.9 257.3 177.9 266.9 169.9 272.3L99 320L170 367.8C178 373.2 182 382.8 180.2 392.3L163.8 476.3L247.8 459.9L251.3 459.5C259.6 459.1 267.6 463.1 272.3 470.1L320.1 541.1L367.9 470.1L370.1 467.3C375.7 461.2 384.1 458.3 392.4 460L476.4 476.4L460 392.4C458.2 382.9 462.2 373.3 470.2 367.9L541.2 320.1L470.2 272.3C462.2 266.9 458.2 257.3 460 247.8L476.4 163.8L392.4 180.2C382.9 182 373.3 178 367.9 170L320.1 99L272.3 170zM320 440C253.7 440 200 386.3 200 320C200 253.7 253.7 200 320 200C386.3 200 440 253.7 440 320C440 386.3 386.3 440 320 440zM320 248C280.2 248 248 280.2 248 320C248 359.8 280.2 392 320 392C359.8 392 392 359.8 392 320C392 280.2 359.8 248 320 248z"/>
    </symbol>

    <!-- pencil -->
    <symbol id="pencil" viewBox="0 0 640 640" stroke-width="1" stroke="currentColor" fill="currentColor">
        <path d="M100.4 417.2C104.5 402.6 112.2 389.3 123 378.5L304.2 197.3L338.1 163.4C354.7 180 389.4 214.7 442.1 267.4L476 301.3L442.1 335.2L260.9 516.4C250.2 527.1 236.8 534.9 222.2 539L94.4 574.6C86.1 576.9 77.1 574.6 71 568.4C64.9 562.2 62.6 553.3 64.9 545L100.4 417.2zM156 413.5C151.6 418.2 148.4 423.9 146.7 430.1L122.6 517L209.5 492.9C215.9 491.1 221.7 487.8 226.5 483.2L155.9 413.5zM510 267.4C493.4 250.8 458.7 216.1 406 163.4L372 129.5C398.5 103 413.4 88.1 416.9 84.6C430.4 71 448.8 63.4 468 63.4C487.2 63.4 505.6 71 519.1 84.6L554.8 120.3C568.4 133.9 576 152.3 576 171.4C576 190.5 568.4 209 554.8 222.5C551.3 226 536.4 240.9 509.9 267.4z"/>
    </symbol>

    <!-- wifi-off -->
    <symbol id="wifi-off" viewBox="0 0 24 24" fill="none" stroke-width="1.5" stroke="currentColor">
        <path stroke-linecap="round" stroke-linejoin="round" d="M3 3l18 18M8.53 13.93a5.97 5.97 0 0 1 6.94 0M5.1 10.49a10.02 10.02 0 0 1 7.5-2.46M1.68 7.06A15.94 15.94 0 0 1 12 3c2.8 0 5.43.72 7.72 1.98M12 18h.01"/>
    </symbol>

    <!-- cloud-upload (pending sync indicator) -->
    <symbol id="cloud-upload" viewBox="0 0 24 24" fill="none" stroke-width="1.5" stroke="currentColor">
        <path stroke-linecap="round" stroke-linejoin="round" d="M12 16.5V9.75m0 0 3 3m-3-3-3 3M6.75 19.5a4.5 4.5 0 0 1-1.41-8.775 5.25 5.25 0 0 1 10.233-2.33 3 3 0 0 1 3.758 3.848A3.752 3.752 0 0 1 18 19.5H6.75Z"/>
    </symbol>

    <!-- fingerprint -->
    <symbol id="fingerprint" viewBox="0 0 640 640" stroke-width="1" stroke="currentColor" fill="currentColor">
        <path d="M112 320C112 205.1 205.1 112 320 112C383.1 112 439.6 140.1 477.8 184.5C486.4 194.6 501.6 195.7 511.6 187.1C521.6 178.5 522.8 163.3 514.2 153.3C467.3 98.6 397.7 64 320 64C178.6 64 64 178.6 64 320L64 360C64 373.3 74.7 384 88 384C101.3 384 112 373.3 112 360L112 320zM570.5 267.1C567.8 254.1 555 245.8 542.1 248.6C529.2 251.4 520.8 264.1 523.6 277C526.5 290.9 528.1 305.3 528.1 320.1L528.1 360.1C528.1 373.4 538.8 384.1 552.1 384.1C565.4 384.1 576.1 373.4 576.1 360.1L576.1 320.1C576.1 302 574.2 284.3 570.6 267.2zM320 144C301 144 282.6 147 265.5 152.6C250.3 157.6 246.8 176.3 257.2 188.5C264.3 196.8 276 199.3 286.6 196.4C297.2 193.5 308.4 192 320 192C390.7 192 448 249.3 448 320L448 344.9C448 370.1 446.5 395.2 443.6 420.2C441.9 434.8 453 448 467.8 448C479.6 448 489.7 439.4 491.1 427.7C494.4 400.3 496.1 372.7 496.1 345L496.1 320.1C496.1 222.9 417.3 144.1 320.1 144.1zM214.7 212.7C205.6 202.1 189.4 201.3 180.8 212.3C157.7 242.1 144 279.4 144 320L144 344.9C144 369.1 141.4 393.3 136.2 416.8C132.8 432.4 144.1 447.9 160.1 447.9C170.6 447.9 180 440.9 182.3 430.6C188.7 402.5 192 373.8 192 344.8L192 319.9C192 292.7 200.5 267.5 214.9 246.8C222.1 236.4 222.9 222.2 214.7 212.6zM320 224C267 224 224 267 224 320L224 344.9C224 380.8 219.4 416.4 210.2 451C206.4 465.3 216.9 480 231.7 480C241.2 480 249.6 473.8 252.1 464.6C262.6 425.6 268 385.4 268 344.9L268 320C268 291.3 291.3 268 320 268C348.7 268 372 291.3 372 320L372 344.9C372 381.2 368.5 417.3 361.6 452.8C358.9 466.7 369.3 480 383.4 480C393.6 480 402.4 473 404.4 463C412.1 424.2 416 384.7 416 344.9L416 320C416 267 373 224 320 224zM344 320C344 306.7 333.3 296 320 296C306.7 296 296 306.7 296 320L296 344.9C296 404.8 285 464.2 263.5 520.1L257.6 535.4C252.8 547.8 259 561.7 271.4 566.4C283.8 571.1 297.7 565 302.4 552.6L308.3 537.3C331.9 475.9 344 410.7 344 344.9L344 320z"/>
    </symbol>

    <!-- Circle notch -loader -->
    <symbol id="circle-notch-loader" viewBox="0 0 640 640" stroke-width="1" stroke="currentColor" fill="currentColor">
        <path d="M286.7 96.1C291.7 113 282.1 130.9 265.2 135.9C185.9 159.5 128.1 233 128.1 320C128.1 426 214.1 512 320.1 512C426.1 512 512.1 426 512.1 320C512.1 233.1 454.3 159.6 375 135.9C358.1 130.9 348.4 113 353.5 96.1C358.6 79.2 376.4 69.5 393.3 74.6C498.9 106.1 576 204 576 320C576 461.4 461.4 576 320 576C178.6 576 64 461.4 64 320C64 204 141.1 106.1 246.9 74.6C263.8 69.6 281.7 79.2 286.7 96.1z"/>
    </symbol>

    <!-- stop -->
    <svg id="stop" viewBox="0 0 640 640" stroke-width="1" stroke="currentColor" fill="currentColor">
        <path d="M160 96L480 96C515.3 96 544 124.7 544 160L544 480C544 515.3 515.3 544 480 544L160 544C124.7 544 96 515.3 96 480L96 160C96 124.7 124.7 96 160 96z"/>
    </svg>

    <!-- Users -->
    <symbol id="users" viewBox="0 0 640 640" stroke-width="1" stroke="currentColor" fill="currentColor">
        <path d="M320 80C377.4 80 424 126.6 424 184C424 241.4 377.4 288 320 288C262.6 288 216 241.4 216 184C216 126.6 262.6 80 320 80zM96 152C135.8 152 168 184.2 168 224C168 263.8 135.8 296 96 296C56.2 296 24 263.8 24 224C24 184.2 56.2 152 96 152zM0 480C0 409.3 57.3 352 128 352C140.8 352 153.2 353.9 164.9 357.4C132 394.2 112 442.8 112 496L112 512C112 523.4 114.4 534.2 118.7 544L32 544C14.3 544 0 529.7 0 512L0 480zM521.3 544C525.6 534.2 528 523.4 528 512L528 496C528 442.8 508 394.2 475.1 357.4C486.8 353.9 499.2 352 512 352C582.7 352 640 409.3 640 480L640 512C640 529.7 625.7 544 608 544L521.3 544zM472 224C472 184.2 504.2 152 544 152C583.8 152 616 184.2 616 224C616 263.8 583.8 296 544 296C504.2 296 472 263.8 472 224zM160 496C160 407.6 231.6 336 320 336C408.4 336 480 407.6 480 496L480 512C480 529.7 465.7 544 448 544L192 544C174.3 544 160 529.7 160 512L160 496z"/>
    </symbol>
</svg>