<svg xmlns="http://www.w3.org/2000/svg">

  <!-- EMAIL -->
    <symbol id="envelope" viewBox="0 0 24 24" stroke-width="1.5" stroke="currentColor">
        <path stroke-linecap="round" stroke-linejoin="round" d="M21.75 6.75v10.5a2.25 2.25 0 0 1-2.25 2.25h-15a2.25 2.25 0 0 1-2.25-2.25V6.75m19.5 0A2.25 2.25 0 0 0 19.5 4.5h-15a2.25 2.25 0 0 0-2.25 2.25m19.5 0v.243a2.25 2.25 0 0 1-1.07 1.916l-7.5 4.615a2.25 2.25 0 0 1-2.36 0L3.32 8.91a2.25 2.25 0 0 1-1.07-1.916V6.75" />
    </symbol>

    <!-- Lock -->
    <symbol id="lock" viewBox="0 0 24 24" stroke-width="1.5" stroke="currentColor">
        <path stroke-linecap="round" stroke-linejoin="round" d="M16.5 10.5V6.75a4.5 4.5 0 1 0-9 0v3.75m-.75 11.25h10.5a2.25 2.25 0 0 0 2.25-2.25v-6.75a2.25 2.25 0 0 0-2.25-2.25H6.75a2.25 2.25 0 0 0-2.25 2.25v6.75a2.25 2.25 0 0 0 2.25 2.25Z" />
    </symbol>
    
    <!-- Eye open -->
    <symbol id="eye-open" viewBox="0 0 24 24" stroke-width="1.5" stroke="currentColor">
        <path stroke-linecap="round" stroke-linejoin="round" d="M2.036 12.322a1.012 1.012 0 0 1 0-.639C3.423 7.51 7.36 4.5 12 4.5c4.638 0 8.573 3.007 9.963 7.178.07.207.07.431 0 .639C20.577 16.49 16.64 19.5 12 19.5c-4.638 0-8.573-3.007-9.963-7.178Z" />
        <path stroke-linecap="round" stroke-linejoin="round" d="M15 12a3 3 0 1 1-6 0 3 3 0 0 1 6 0Z" />
    </symbol>

    <!-- Eye closed -->
    <symbol id="eye-closed" viewBox="0 0 24 24" stroke-width="1.5" stroke="currentColor">
        <path stroke-linecap="round" stroke-linejoin="round" d="M3.98 8.223A10.477 10.477 0 0 0 1.934 12C3.226 16.338 7.244 19.5 12 19.5c.993 0 1.953-.138 2.863-.395M6.228 6.228A10.451 10.451 0 0 1 12 4.5c4.756 0 8.773 3.162 10.065 7.498a10.522 10.522 0 0 1-4.293 5.774M6.228 6.228 3 3m3.228 3.228 3.65 3.65m7.894 7.894L21 21m-3.228-3.228-3.65-3.65m0 0a3 3 0 1 0-4.243-4.243m4.242 4.242L9.88 9.88" />
    </symbol>

    <!-- User -->
    <symbol id="user" viewBox="0 0 24 24" stroke-width="1.5" stroke="currentColor">
        <path stroke-linecap="round" stroke-linejoin="round" d="M15.75 6a3.75 3.75 0 1 1-7.5 0 3.75 3.75 0 0 1 7.5 0ZM4.501 20.118a7.5 7.5 0 0 1 14.998 0A17.933 17.933 0 0 1 12 21.75c-2.676 0-5.216-.584-7.499-1.632Z" />
    </symbol>

    <!-- Home -->
    <symbol id="home" viewBox="0 0 24 24" stroke-width="1.5" stroke="currentColor">
        <path stroke-linecap="round" stroke-linejoin="round" d="m2.25 12 8.954-8.955c.44-.439 1.152-.439 1.591 0L21.75 12M4.5 9.75v10.125c0 .621.504 1.125 1.125 1.125H9.75v-4.875c0-.621.504-1.125 1.125-1.125h2.25c.621 0 1.125.504 1.125 1.125V21h4.125c.621 0 1.125-.504 1.125-1.125V9.75M8.25 21h8.25" />
    </symbol>

    <!-- Right-arrow -->
    <symbol id="right-arrow" viewBox="0 0 24 24" stroke-width="1.5" stroke="currentColor">
        <path stroke-linecap="round" stroke-linejoin="round" d="M13.5 4.5 21 12m0 0-7.5 7.5M21 12H3" />
    </symbol>

    <!-- Left arrow -->
    <symbol id="left-arrow" viewBox="0 0 24 24" stroke-width="1.5" stroke="currentColor">
        <path stroke-linecap="round" stroke-linejoin="round" d="M10.5 19.5 3 12m0 0 7.5-7.5M3 12h18" />
    </symbol>

    <!-- Camera -->
    <symbol id="camera" viewBox="0 0 24 24" stroke-width="1.5" stroke="currentColor">
        <path stroke-linecap="round" stroke-linejoin="round" d="M6.827 6.175A2.31 2.31 0 0 1 5.186 7.23c-.38.054-.757.112-1.134.175C2.999 7.58 2.25 8.507 2.25 9.574V18a2.25 2.25 0 0 0 2.25 2.25h15A2.25 2.25 0 0 0 21.75 18V9.574c0-1.067-.75-1.994-1.802-2.169a47.865 47.865 0 0 0-1.134-.175 2.31 2.31 0 0 1-1.64-1.055l-.822-1.316a2.192 2.192 0 0 0-1.736-1.039 48.774 48.774 0 0 0-5.232 0 2.192 2.192 0 0 0-1.736 1.039l-.821 1.316Z" />
        <path stroke-linecap="round" stroke-linejoin="round" d="M16.5 12.75a4.5 4.5 0 1 1-9 0 4.5 4.5 0 0 1 9 0ZM18.75 10.5h.008v.008h-.008V10.5Z" />
    </symbol>

    <!-- Wallet -->
    <symbol id="wallet" viewBox="0 0 24 24" stroke-width="1.5" stroke="currentColor">
        <path stroke-linecap="round" stroke-linejoin="round" d="M21 12a2.25 2.25 0 0 0-2.25-2.25H15a3 3 0 1 1-6 0H5.25A2.25 2.25 0 0 0 3 12m18 0v6a2.25 2.25 0 0 1-2.25 2.25H5.25A2.25 2.25 0 0 1 3 18v-6m18 0V9M3 12V9m18 0a2.25 2.25 0 0 0-2.25-2.25H5.25A2.25 2.25 0 0 0 3 9m18 0V6a2.25 2.25 0 0 0-2.25-2.25H5.25A2.25 2.25 0 0 0 3 6v3" />
    </symbol>

    <!-- Notes -->
    <symbol id="notes" viewBox="0 0 24 24" stroke-width="1.5" stroke="currentColor">
        <path stroke-linecap="round" stroke-linejoin="round" d="M2.25 18.75a60.07 60.07 0 0 1 15.797 2.101c.727.198 1.453-.342 1.453-1.096V18.75M3.75 4.5v.75A.75.75 0 0 1 3 6h-.75m0 0v-.375c0-.621.504-1.125 1.125-1.125H20.25M2.25 6v9m18-10.5v.75c0 .414.336.75.75.75h.75m-1.5-1.5h.375c.621 0 1.125.504 1.125 1.125v9.75c0 .621-.504 1.125-1.125 1.125h-.375m1.5-1.5H21a.75.75 0 0 0-.75.75v.75m0 0H3.75m0 0h-.375a1.125 1.125 0 0 1-1.125-1.125V15m1.5 1.5v-.75A.75.75 0 0 0 3 15h-.75M15 10.5a3 3 0 1 1-6 0 3 3 0 0 1 6 0Zm3 0h.008v.008H18V10.5Zm-12 0h.008v.008H6V10.5Z" />
    </symbol>

    <!-- Plus circle -->
    <symbol id="plus-circle" viewBox="0 0 24 24" stroke-width="1.5" stroke="currentColor">
        <path stroke-linecap="round" stroke-linejoin="round" d="M12 9v6m3-3H9m12 0a9 9 0 1 1-18 0 9 9 0 0 1 18 0Z" />
    </symbol>

    <!-- Plus -->
    <symbol id="plus" viewBox="0 0 24 24" stroke-width="1.5" stroke="currentColor">
        <path stroke-linecap="round" stroke-linejoin="round" d="M12 4.5v15m7.5-7.5h-15" />
    </symbol>

    <!-- Minus -->
    <symbol id="minus" viewBox="0 0 24 24" stroke-width="1.5" stroke="currentColor">
        <path stroke-linecap="round" stroke-linejoin="round" d="M5 12h14" />
    </symbol>

    <!-- minus circle -->
    <symbol id="minus-circle" viewBox="0 0 24 24" stroke-width="1.5" stroke="currentColor">
        <path stroke-linecap="round" stroke-linejoin="round" d="M15 12H9m12 0a9 9 0 1 1-18 0 9 9 0 0 1 18 0Z" />
    </symbol>

    <!-- Dollar sign -->
    <symbol id="dollar-sign" viewBox="0 0 24 24" stroke-width="1.5" stroke="currentColor">
        <path stroke-linecap="round" stroke-linejoin="round" d="M12 6v12m-3-2.818.879.659c1.171.879 3.07.879 4.242 0 1.172-.879 1.172-2.303 0-3.182C13.536 12.219 12.768 12 12 12c-.725 0-1.45-.22-2.003-.659-1.106-.879-1.106-2.303 0-3.182s2.9-.879 4.006 0l.415.33M21 12a9 9 0 1 1-18 0 9 9 0 0 1 18 0Z" />
    </symbol>

    <!-- Office-building -->
    <symbol id="office-building" viewBox="0 0 24 24" stroke-width="1.5" stroke="currentColor">
      <path stroke-linecap="round" stroke-linejoin="round" d="M2.25 21h19.5m-18-18v18m10.5-18v18m6-13.5V21M6.75 6.75h.75m-.75 3h.75m-.75 3h.75m3-6h.75m-.75 3h.75m-.75 3h.75M6.75 21v-3.375c0-.621.504-1.125 1.125-1.125h2.25c.621 0 1.125.504 1.125 1.125V21M3 3h12m-.75 4.5H21m-3.75 3.75h.008v.008h-.008v-.008Zm0 3h.008v.008h-.008v-.008Zm0 3h.008v.008h-.008v-.008Z" />
    </symbol>

    <!-- Bullseye -->
    <symbol id="bullseye" viewBox="0 0 640 640" stroke-width="1.5" stroke="currentColor" fill="currentColor">
        <path d="M512 320C512 214 426 128 320 128C214 128 128 214 128 320C128 426 214 512 320 512C426 512 512 426 512 320zM64 320C64 178.6 178.6 64 320 64C461.4 64 576 178.6 576 320C576 461.4 461.4 576 320 576C178.6 576 64 461.4 64 320zM320 400C364.2 400 400 364.2 400 320C400 275.8 364.2 240 320 240C275.8 240 240 275.8 240 320C240 364.2 275.8 400 320 400zM320 176C399.5 176 464 240.5 464 320C464 399.5 399.5 464 320 464C240.5 464 176 399.5 176 320C176 240.5 240.5 176 320 176zM288 320C288 302.3 302.3 288 320 288C337.7 288 352 302.3 352 320C352 337.7 337.7 352 320 352C302.3 352 288 337.7 288 320z"/>
    </symbol>

    <!-- Target -->
    <symbol id="target" viewBox="0 0 640 640" stroke-width="1.5" stroke="currentColor" fill="currentColor">
        <path d="M320 48C337.7 48 352 62.3 352 80L352 98.3C450.1 112.3 527.7 189.9 541.7 288L560 288C577.7 288 592 302.3 592 320C592 337.7 577.7 352 560 352L541.7 352C527.7 450.1 450.1 527.7 352 541.7L352 560C352 577.7 337.7 592 320 592C302.3 592 288 577.7 288 560L288 541.7C189.9 527.7 112.3 450.1 98.3 352L80 352C62.3 352 48 337.7 48 320C48 302.3 62.3 288 80 288L98.3 288C112.3 189.9 189.9 112.3 288 98.3L288 80C288 62.3 302.3 48 320 48zM163.2 352C175.9 414.7 225.3 464.1 288 476.8L288 464C288 446.3 302.3 432 320 432C337.7 432 352 446.3 352 464L352 476.8C414.7 464.1 464.1 414.7 476.8 352L464 352C446.3 352 432 337.7 432 320C432 302.3 446.3 288 464 288L476.8 288C464.1 225.3 414.7 175.9 352 163.2L352 176C352 193.7 337.7 208 320 208C302.3 208 288 193.7 288 176L288 163.2C225.3 175.9 175.9 225.3 163.2 288L176 288C193.7 288 208 302.3 208 320C208 337.7 193.7 352 176 352L163.2 352zM320 272C346.5 272 368 293.5 368 320C368 346.5 346.5 368 320 368C293.5 368 272 346.5 272 320C272 293.5 293.5 272 320 272z"/>
    </symbol>

    <!-- Crosshair -->
    <symbol id="crosshair" viewBox="0 0 640 640" stroke-width="1.5" stroke="currentColor" fill="currentColor">
        <path d="M320 48C337.7 48 352 62.3 352 80L352 98.3C450.1 112.3 527.7 189.9 541.7 288L560 288C577.7 288 592 302.3 592 320C592 337.7 577.7 352 560 352L541.7 352C527.7 450.1 450.1 527.7 352 541.7L352 560C352 577.7 337.7 592 320 592C302.3 592 288 577.7 288 560L288 541.7C189.9 527.7 112.3 450.1 98.3 352L80 352C62.3 352 48 337.7 48 320C48 302.3 62.3 288 80 288L98.3 288C112.3 189.9 189.9 112.3 288 98.3L288 80C288 62.3 302.3 48 320 48zM163.2 352C175.9 414.7 225.3 464.1 288 476.8L288 464C288 446.3 302.3 432 320 432C337.7 432 352 446.3 352 464L352 476.8C414.7 464.1 464.1 414.7 476.8 352L464 352C446.3 352 432 337.7 432 320C432 302.3 446.3 288 464 288L476.8 288C464.1 225.3 414.7 175.9 352 163.2L352 176C352 193.7 337.7 208 320 208C302.3 208 288 193.7 288 176L288 163.2C225.3 175.9 175.9 225.3 163.2 288L176 288C193.7 288 208 302.3 208 320C208 337.7 193.7 352 176 352L163.2 352zM320 272C346.5 272 368 293.5 368 320C368 346.5 346.5 368 320 368C293.5 368 272 346.5 272 320C272 293.5 293.5 272 320 272z"/>
    </symbol>

    <!-- Calendar -->
    <symbol id="calendar" viewBox="0 0 24 24" stroke-width="1.5" stroke="currentColor" fill="currentColor">
        <path stroke-linecap="round" stroke-linejoin="round" d="M6.75 3v2.25M17.25 3v2.25M3 18.75V7.5a2.25 2.25 0 0 1 2.25-2.25h13.5A2.25 2.25 0 0 1 21 7.5v11.25m-18 0A2.25 2.25 0 0 0 5.25 21h13.5A2.25 2.25 0 0 0 21 18.75m-18 0v-7.5A2.25 2.25 0 0 1 5.25 9h13.5A2.25 2.25 0 0 1 21 11.25v7.5m-9-6h.008v.008H12v-.008ZM12 15h.008v.008H12V15Zm0 2.25h.008v.008H12v-.008ZM9.75 15h.008v.008H9.75V15Zm0 2.25h.008v.008H9.75v-.008ZM7.5 15h.008v.008H7.5V15Zm0 2.25h.008v.008H7.5v-.008Zm6.75-4.5h.008v.008h-.008v-.008Zm0 2.25h.008v.008h-.008V15Zm0 2.25h.008v.008h-.008v-.008Zm2.25-4.5h.008v.008H16.5v-.008Zm0 2.25h.008v.008H16.5V15Z" />
    </symbol>

    <!-- Forward -->
    <symbol id="forward" viewBox="0 0 24 24" stroke-width="1.5" stroke="currentColor" fill="currentColor">
        <path stroke-linecap="round" stroke-linejoin="round" d="M3 8.689c0-.864.933-1.406 1.683-.977l7.108 4.061a1.125 1.125 0 0 1 0 1.954l-7.108 4.061A1.125 1.125 0 0 1 3 16.811V8.69ZM12.75 8.689c0-.864.933-1.406 1.683-.977l7.108 4.061a1.125 1.125 0 0 1 0 1.954l-7.108 4.061a1.125 1.125 0 0 1-1.683-.977V8.69Z" />
    </symbol>

    <!-- Bell -->
    <symbol id="bell" viewBox="0 0 640 640" stroke-width="1.5" stroke="currentColor" fill="currentColor">
        <path d="M320 64C306.7 64 296 74.7 296 88L296 97.7C214.6 109.3 152 179.4 152 264L152 278.5C152 316.2 142 353.2 123 385.8L101.1 423.2C97.8 429 96 435.5 96 442.2C96 463.1 112.9 480 133.8 480L506.2 480C527.1 480 544 463.1 544 442.2C544 435.5 542.2 428.9 538.9 423.2L517 385.7C498 353.1 488 316.1 488 278.4L488 263.9C488 179.3 425.4 109.2 344 97.6L344 87.9C344 74.6 333.3 63.9 320 63.9zM488.4 432L151.5 432L164.4 409.9C187.7 370 200 324.6 200 278.5L200 264C200 197.7 253.7 144 320 144C386.3 144 440 197.7 440 264L440 278.5C440 324.7 452.3 370 475.5 409.9L488.4 432zM252.1 528C262 556 288.7 576 320 576C351.3 576 378 556 387.9 528L252.1 528z"/>
    </symbol>

    <!-- Stock Down -->
    <symbol id="stock-down" viewBox="0 0 640 640" stroke-width="1.5" stroke="currentColor" fill="currentColor">
        <path d="M416 416C398.3 416 384 430.3 384 448C384 465.7 398.3 480 416 480L576 480C593.7 480 608 465.7 608 448L608 288C608 270.3 593.7 256 576 256C558.3 256 544 270.3 544 288L544 370.7L374.6 201.3C362.1 188.8 341.8 188.8 329.3 201.3L224 306.7L86.6 169.4C74.1 156.9 53.8 156.9 41.3 169.4C28.8 181.9 28.8 202.2 41.3 214.7L201.3 374.7C213.8 387.2 234.1 387.2 246.6 374.7L352 269.3L498.7 416L416 416z"/>
    </symbol>

    <!-- Stock Up -->
    <symbol id="stock-up" viewBox="0 0 640 640" stroke-width="1.5" stroke="currentColor" fill="currentColor">
        <path d="M416 224C398.3 224 384 209.7 384 192C384 174.3 398.3 160 416 160L576 160C593.7 160 608 174.3 608 192L608 352C608 369.7 593.7 384 576 384C558.3 384 544 369.7 544 352L544 269.3L374.6 438.7C362.1 451.2 341.8 451.2 329.3 438.7L224 333.3L86.6 470.6C74.1 483.1 53.8 483.1 41.3 470.6C28.8 458.1 28.8 437.8 41.3 425.3L201.3 265.3C213.8 252.8 234.1 252.8 246.6 265.3L352 370.7L498.7 224L416 224z"/>
    </symbol>

    <!-- Tags -->
    <symbol id="tags" viewBox="0 0 640 640" stroke-width="1.5" stroke="currentColor" fill="currentColor">
        <path d="M433.2 103.1L581.4 253.4C609.1 281.5 609.1 326.5 581.4 354.6L425 512.9C415.7 522.3 400.5 522.4 391.1 513.1C381.7 503.8 381.6 488.6 390.9 479.2L547.3 320.8C556.5 311.5 556.5 296.4 547.3 287.1L399 136.9C389.7 127.5 389.8 112.3 399.2 103C408.6 93.7 423.8 93.8 433.1 103.2zM64.1 293.5L64.1 160C64.1 124.7 92.8 96 128.1 96L261.6 96C278.6 96 294.9 102.7 306.9 114.7L450.9 258.7C475.9 283.7 475.9 324.2 450.9 349.2L317.4 482.7C292.4 507.7 251.9 507.7 226.9 482.7L82.9 338.7C70.9 326.7 64.2 310.4 64.2 293.4zM208.1 208C208.1 190.3 193.8 176 176.1 176C158.4 176 144.1 190.3 144.1 208C144.1 225.7 158.4 240 176.1 240C193.8 240 208.1 225.7 208.1 208z"/>
    </symbol>

    <!-- bar-graph -->
    <symbol id="bar-graph" viewBox="0 0 640 640" stroke-width="1.5" stroke="currentColor" fill="currentColor">
        <path d="M256 144C256 117.5 277.5 96 304 96L336 96C362.5 96 384 117.5 384 144L384 496C384 522.5 362.5 544 336 544L304 544C277.5 544 256 522.5 256 496L256 144zM64 336C64 309.5 85.5 288 112 288L144 288C170.5 288 192 309.5 192 336L192 496C192 522.5 170.5 544 144 544L112 544C85.5 544 64 522.5 64 496L64 336zM496 160L528 160C554.5 160 576 181.5 576 208L576 496C576 522.5 554.5 544 528 544L496 544C469.5 544 448 522.5 448 496L448 208C448 181.5 469.5 160 496 160z"/>
    </symbol>

    <!-- credit-card -->
    <symbol id="credit-card" viewBox="0 0 24 24" stroke-width="1.5" stroke="currentColor" fill="currentColor">
        <path stroke-linecap="round" stroke-linejoin="round" d="M2.25 8.25h19.5M2.25 9h19.5m-16.5 5.25h6m-6 2.25h3m-3.75 3h15a2.25 2.25 0 0 0 2.25-2.25V6.75A2.25 2.25 0 0 0 19.5 4.5h-15a2.25 2.25 0 0 0-2.25 2.25v10.5A2.25 2.25 0 0 0 4.5 19.5Z" />
    </symbol>

    <!-- bank-notes -->
    <symbol id="bank-notes" viewBox="0 0 24 24" stroke-width="1.5" stroke="currentColor" fill="currentColor">
        <path stroke-linecap="round" stroke-linejoin="round" d="M2.25 18.75a60.07 60.07 0 0 1 15.797 2.101c.727.198 1.453-.342 1.453-1.096V18.75M3.75 4.5v.75A.75.75 0 0 1 3 6h-.75m0 0v-.375c0-.621.504-1.125 1.125-1.125H20.25M2.25 6v9m18-10.5v.75c0 .414.336.75.75.75h.75m-1.5-1.5h.375c.621 0 1.125.504 1.125 1.125v9.75c0 .621-.504 1.125-1.125 1.125h-.375m1.5-1.5H21a.75.75 0 0 0-.75.75v.75m0 0H3.75m0 0h-.375a1.125 1.125 0 0 1-1.125-1.125V15m1.5 1.5v-.75A.75.75 0 0 0 3 15h-.75M15 10.5a3 3 0 1 1-6 0 3 3 0 0 1 6 0Zm3 0h.008v.008H18V10.5Zm-12 0h.008v.008H6V10.5Z" />
    </symbol>

    <!-- mobile-phone -->
    <symbol id="mobile-phone" viewBox="0 0 24 24" stroke-width="1.5" stroke="currentColor" fill="currentColor">
        <path stroke-linecap="round" stroke-linejoin="round" d="M10.5 1.5H8.25A2.25 2.25 0 0 0 6 3.75v16.5a2.25 2.25 0 0 0 2.25 2.25h7.5A2.25 2.25 0 0 0 18 20.25V3.75a2.25 2.25 0 0 0-2.25-2.25H13.5m-3 0V3h3V1.5m-3 0h3m-3 18.75h3" />
    </symbol>

    <!-- building-library -->
    <symbol id="building-library" viewBox="0 0 24 24" stroke-width="1.5" stroke="currentColor" fill="currentColor">
        <path stroke-linecap="round" stroke-linejoin="round" d="M12 21v-8.25M15.75 21v-8.25M8.25 21v-8.25M3 9l9-6 9 6m-1.5 12V10.332A48.36 48.36 0 0 0 12 9.75c-2.551 0-5.056.2-7.5.582V21M3 21h18M12 6.75h.008v.008H12V6.75Z" />
    </symbol>

    <!-- utensils -->
    <symbol id="utensils" viewBox="0 0 640 640" stroke-width="1.5" stroke="currentColor" fill="currentColor">
        <path d="M127.9 78.4C127.1 70.2 120.2 64 112 64C103.8 64 96.9 70.2 96 78.3L81.9 213.7C80.6 219.7 80 225.8 80 231.9C80 277.8 115.1 315.5 160 319.6L160 544C160 561.7 174.3 576 192 576C209.7 576 224 561.7 224 544L224 319.6C268.9 315.5 304 277.8 304 231.9C304 225.8 303.4 219.7 302.1 213.7L287.9 78.3C287.1 70.2 280.2 64 272 64C263.8 64 256.9 70.2 256.1 78.4L242.5 213.9C241.9 219.6 237.1 224 231.4 224C225.6 224 220.8 219.6 220.2 213.8L207.9 78.6C207.2 70.3 200.3 64 192 64C183.7 64 176.8 70.3 176.1 78.6L163.8 213.8C163.3 219.6 158.4 224 152.6 224C146.8 224 142 219.6 141.5 213.9L127.9 78.4zM512 64C496 64 384 96 384 240L384 352C384 387.3 412.7 416 448 416L480 416L480 544C480 561.7 494.3 576 512 576C529.7 576 544 561.7 544 544L544 96C544 78.3 529.7 64 512 64z"/>
    </symbol>

    <!-- car-side -->
    <symbol id="car-side" viewBox="0 0 640 640" stroke-width="1.5" stroke="currentColor" fill="currentColor">
        <path d="M147 170.7L117.2 256L240.1 256L240.1 160L162.2 160C155.4 160 149.3 164.3 147.1 170.7zM48.6 257.9L86.5 149.6C97.8 117.5 128.1 96 162.1 96L360 96C385.2 96 408.9 107.9 424 128L520.2 256.3C587.1 260.5 640 316.1 640 384L640 400C640 435.3 611.3 464 576 464L559.6 464C555.6 508.9 517.9 544 472 544C426.1 544 388.4 508.9 384.4 464L239.7 464C235.7 508.9 198 544 152.1 544C106.2 544 68.5 508.9 64.5 464L64.1 464C28.8 464 .1 435.3 .1 400L.1 320C.1 289.9 20.8 264.7 48.7 257.9zM440 256L372.8 166.4C369.8 162.4 365 160 360 160L288 160L288 256L440 256zM152 496C174.1 496 192 478.1 192 456C192 433.9 174.1 416 152 416C129.9 416 112 433.9 112 456C112 478.1 129.9 496 152 496zM512 456C512 433.9 494.1 416 472 416C449.9 416 432 433.9 432 456C432 478.1 449.9 496 472 496C494.1 496 512 478.1 512 456z"/>
    </symbol>

    <!-- shopping-bag -->
    <symbol id="shopping-bag" viewBox="0 0 24 24" stroke-width="1.5" stroke="currentColor" fill="currentColor">
        <path stroke-linecap="round" stroke-linejoin="round" d="M15.75 10.5V6a3.75 3.75 0 1 0-7.5 0v4.5m11.356-1.993 1.263 12c.07.665-.45 1.243-1.119 1.243H4.25a1.125 1.125 0 0 1-1.12-1.243l1.264-12A1.125 1.125 0 0 1 5.513 7.5h12.974c.576 0 1.059.435 1.119 1.007ZM8.625 10.5a.375.375 0 1 1-.75 0 .375.375 0 0 1 .75 0Zm7.5 0a.375.375 0 1 1-.75 0 .375.375 0 0 1 .75 0Z" />
    </symbol>

    <!-- bulb -->
    <symbol id="bulb" viewBox="0 0 24 24" stroke-width="1.5" stroke="currentColor" fill="currentColor">
        <path stroke-linecap="round" stroke-linejoin="round" d="M12 18v-5.25m0 0a6.01 6.01 0 0 0 1.5-.189m-1.5.189a6.01 6.01 0 0 1-1.5-.189m3.75 7.478a12.06 12.06 0 0 1-4.5 0m3.75 2.383a14.406 14.406 0 0 1-3 0M14.25 18v-.192c0-.983.658-1.823 1.508-2.316a7.5 7.5 0 1 0-7.517 0c.85.493 1.509 1.333 1.509 2.316V18" />
    </symbol>

    <!-- Dumbells -->
    <symbol id="dumbells" viewBox="0 0 640 640" stroke-width="1.5" stroke="currentColor" fill="currentColor">
        <path d="M96 176C96 149.5 117.5 128 144 128C170.5 128 192 149.5 192 176L192 288L448 288L448 176C448 149.5 469.5 128 496 128C522.5 128 544 149.5 544 176L544 192L560 192C586.5 192 608 213.5 608 240L608 288C625.7 288 640 302.3 640 320C640 337.7 625.7 352 608 352L608 400C608 426.5 586.5 448 560 448L544 448L544 464C544 490.5 522.5 512 496 512C469.5 512 448 490.5 448 464L448 352L192 352L192 464C192 490.5 170.5 512 144 512C117.5 512 96 490.5 96 464L96 448L80 448C53.5 448 32 426.5 32 400L32 352C14.3 352 0 337.7 0 320C0 302.3 14.3 288 32 288L32 240C32 213.5 53.5 192 80 192L96 192L96 176z"/>
    </symbol>

    <!-- Entertainment -->
    <symbol id="entertainment" viewBox="0 0 640 640" stroke-width="1.5" stroke="currentColor" fill="currentColor">
        <path d="M96 160L96 400L544 400L544 160L96 160zM32 160C32 124.7 60.7 96 96 96L544 96C579.3 96 608 124.7 608 160L608 400C608 435.3 579.3 464 544 464L96 464C60.7 464 32 435.3 32 400L32 160zM192 512L448 512C465.7 512 480 526.3 480 544C480 561.7 465.7 576 448 576L192 576C174.3 576 160 561.7 160 544C160 526.3 174.3 512 192 512z"/>
    </symbol>

    <!-- Settings -->
    <symbol id="settings" viewBox="0 0 640 640" stroke-width="1.5" stroke="currentColor" fill="currentColor">
        <path d="M259.1 73.5C262.1 58.7 275.2 48 290.4 48L350.2 48C365.4 48 378.5 58.7 381.5 73.5L396 143.5C410.1 149.5 423.3 157.2 435.3 166.3L503.1 143.8C517.5 139 533.3 145 540.9 158.2L570.8 210C578.4 223.2 575.7 239.8 564.3 249.9L511 297.3C511.9 304.7 512.3 312.3 512.3 320C512.3 327.7 511.8 335.3 511 342.7L564.4 390.2C575.8 400.3 578.4 417 570.9 430.1L541 481.9C533.4 495 517.6 501.1 503.2 496.3L435.4 473.8C423.3 482.9 410.1 490.5 396.1 496.6L381.7 566.5C378.6 581.4 365.5 592 350.4 592L290.6 592C275.4 592 262.3 581.3 259.3 566.5L244.9 496.6C230.8 490.6 217.7 482.9 205.6 473.8L137.5 496.3C123.1 501.1 107.3 495.1 99.7 481.9L69.8 430.1C62.2 416.9 64.9 400.3 76.3 390.2L129.7 342.7C128.8 335.3 128.4 327.7 128.4 320C128.4 312.3 128.9 304.7 129.7 297.3L76.3 249.8C64.9 239.7 62.3 223 69.8 209.9L99.7 158.1C107.3 144.9 123.1 138.9 137.5 143.7L205.3 166.2C217.4 157.1 230.6 149.5 244.6 143.4L259.1 73.5zM320.3 400C364.5 399.8 400.2 363.9 400 319.7C399.8 275.5 363.9 239.8 319.7 240C275.5 240.2 239.8 276.1 240 320.3C240.2 364.5 276.1 400.2 320.3 400z"/>
    </symbol>

    <!-- Arrow right-left -->
    <symbol id="arrow-right-left" viewBox="0 0 24 24" stroke-width="1.5" stroke="currentColor" fill="currentColor">
        <path stroke-linecap="round" stroke-linejoin="round" d="M7.5 21 3 16.5m0 0L7.5 12M3 16.5h13.5m0-13.5L21 7.5m0 0L16.5 12M21 7.5H7.5" />
    </symbol>

    <!-- user group -->
    <symbol id="user-group" viewBox="0 0 24 24" stroke-width="1.5" stroke="currentColor" fill="currentColor">
        <path stroke-linecap="round" stroke-linejoin="round" d="M18 18.72a9.094 9.094 0 0 0 3.741-.479 3 3 0 0 0-4.682-2.72m.94 3.198.001.031c0 .225-.012.447-.037.666A11.944 11.944 0 0 1 12 21c-2.17 0-4.207-.576-5.963-1.584A6.062 6.062 0 0 1 6 18.719m12 0a5.971 5.971 0 0 0-.941-3.197m0 0A5.995 5.995 0 0 0 12 12.75a5.995 5.995 0 0 0-5.058 2.772m0 0a3 3 0 0 0-4.681 2.72 8.986 8.986 0 0 0 3.74.477m.94-3.197a5.971 5.971 0 0 0-.94 3.197M15 6.75a3 3 0 1 1-6 0 3 3 0 0 1 6 0Zm6 3a2.25 2.25 0 1 1-4.5 0 2.25 2.25 0 0 1 4.5 0Zm-13.5 0a2.25 2.25 0 1 1-4.5 0 2.25 2.25 0 0 1 4.5 0Z" />
    </symbol>




</svg>